<svg xmlns="http://www.w3.org/2000/svg" viewBox="0 0 111.1 182.99"><defs><style>.cls-1{fill:#ed8f26;stroke:#000000;stroke-miterlimit:10;opacity:"0.8"}</style></defs><g id="圖層_2" data-name="圖層 2"><g id="圖層_1-2" data-name="圖層 1"><path class="cls-1" d="M58.79,2l50.78,60a4.35,4.35,0,0,1-3.32,7.16H84.81a4.34,4.34,0,0,0-4.35,4.34V178.14a4.34,4.34,0,0,1-4.34,4.35H34.81a4.35,4.35,0,0,1-4.35-4.35V73.55a4.34,4.34,0,0,0-4.34-4.34H4.85a4.35,4.35,0,0,1-3.32-7.15L52.15,2A4.35,4.35,0,0,1,58.79,2Z"/></g></g></svg>