<?xml version="1.0" encoding="utf-8"?>
<!-- Generator: Adobe Illustrator 25.2.1, SVG Export Plug-In . SVG Version: 6.00 Build 0)  -->
<svg version="1.1" id="圖層_1" xmlns="http://www.w3.org/2000/svg" xmlns:xlink="http://www.w3.org/1999/xlink" x="0px" y="0px"
	 viewBox="0 0 360 360" style="enable-background:new 0 0 360 360;fill:#464646" xml:space="preserve">
<style type="text/css">
	.st0{enable-background:new    ;}
</style>
<g class="st0">
	<path d="M353.4,322.6c0,21.2-21.3,31.9-64.6,31.9H69.2c-42,0-62.7-10.7-62.7-31.9V37.7c0-21.5,20.7-32.2,62.7-32.2h219.6
		c42.6,0,64.6,10.7,64.6,32.2l0.1,103.7h-76.4V50.3h-188v259.3h184.5v-22.1l79.8,1L353.4,322.6L353.4,322.6z"/>
	<path d="M186,186.4c0,12.7-5.2,18.8-15.6,18.8H129v73.1h-25.6V76.4h66.9c10.3,0,15.6,6.2,15.6,18.7v91.3H186z M160.1,179.1v-76.9
		h-31.2v76.9L160.1,179.1L160.1,179.1z"/>
	<g>
		<path d="M239.7,276.2H202V156h14.4v104.3h23.4V276.2L239.7,276.2z"/>
		<path d="M297,276.2h-14.2l-2.8-22.9h-18.1l-2.8,22.9h-14.2v-0.4l18.5-120.2h15.1L297,276.2z M277.8,238l-7-54.3l-7,54.3H277.8z"/>
		<path d="M353.5,276.2H341l-22.9-75.7c0.6,3.6,0.9,6.6,0.9,8.7v67.2h-14V156h12.5l22.9,74.2c-0.6-3.6-0.9-6.6-0.9-8.7V156h14V276.2
			z"/>
	</g>
</g>
</svg>
