<?xml version="1.0" standalone="no"?>
<!DOCTYPE svg PUBLIC "-//W3C//DTD SVG 20010904//EN"
 "http://www.w3.org/TR/2001/REC-SVG-20010904/DTD/svg10.dtd">
<svg version="1.0" xmlns="http://www.w3.org/2000/svg"
 width="512.000000pt" height="512.000000pt" viewBox="0 0 512.000000 512.000000"
 preserveAspectRatio="xMidYMid meet">
<metadata>
Created by potrace 1.16, written by Peter Selinger 2001-2019
</metadata>
<g transform="translate(0.000000,512.000000) scale(0.100000,-0.100000)"
fill="#e69138" stroke="none">
<path d="M3211 4060 c-71 -15 -137 -66 -174 -135 -21 -38 -22 -57 -27 -325 -6
-308 -8 -320 -65 -388 -15 -18 -46 -43 -69 -55 l-41 -22 -1340 -5 c-1487 -6
-1363 1 -1432 -72 -63 -65 -63 -67 -63 -503 0 -313 3 -403 14 -429 21 -51 76
-107 131 -132 l50 -24 1303 0 c906 0 1316 -3 1346 -11 55 -14 110 -59 139
-112 21 -40 22 -57 27 -327 6 -320 7 -328 82 -396 47 -42 85 -59 150 -69 104
-16 85 -28 929 627 977 760 894 692 926 756 23 46 25 61 21 127 -4 58 -11 83
-31 114 -17 26 -303 260 -847 693 -451 359 -836 661 -854 670 -42 22 -119 29
-175 18z"/>
</g>
</svg>
