<svg xmlns="http://www.w3.org/2000/svg" viewBox="0 0 112.52 53.49"><defs><style>.cls-1{fill:#f3f3f1;}.cls-2{fill:#0b205a;}.cls-3{fill:#1b3a62;}.cls-4{fill:#78a6d3;}.cls-5{fill:#021348;}.cls-6{fill:#a1c2de;}.cls-7{fill:#88a6c4;}.cls-8{fill:#e2eef7;}.cls-9{fill:#b6d0e6;}.cls-10{fill:#719ed3;}.cls-11{fill:#7995b2;}.cls-12{fill:#7699c4;}.cls-13{fill:#96aac0;}.cls-14{fill:#d3d9df;}.cls-15{fill:#86aedc;}.cls-16{fill:#e2dfe3;}.cls-17{fill:#2b466e;}.cls-18{fill:#73ace7;}.cls-19{fill:#72a6dc;}.cls-20{fill:#98b5cd;}.cls-21{fill:#cf94a8;}.cls-22{fill:#e2e6eb;}.cls-23{fill:#f4f6f7;}.cls-24{fill:#568ac3;}.cls-25{fill:aqua;}.cls-26{fill:#eaeceb;}.cls-27{fill:#e9eef1;}.cls-28{fill:#efefeb;}.cls-29{fill:#b5c4d3;}.cls-30{fill:#949db3;}.cls-31{fill:#596683;}.cls-32{fill:#eff1f1;}.cls-33{fill:#d1e2ee;}.cls-34{fill:#888da2;}.cls-35{fill:#6d829b;}.cls-36{fill:#ec5f68;}.cls-37{fill:#a2244a;}.cls-38{fill:#5e234d;}.cls-39{fill:#6ba4de;}</style></defs><g id="圖層_2" data-name="圖層 2"><g id="Layer_1" data-name="Layer 1"><path class="cls-1" d="M94.56,30.06l1.56,1.28a2.33,2.33,0,0,1,0,1.49c-.41.78-.21,1.16.62,1.46A16.56,16.56,0,0,1,97,36.87c-.36.1-.61.2-1,.3l-2.45,0c-2,.09-3.88.1-5.73.35-.45.07-.89.87-1.15,1.42a4.59,4.59,0,0,0,0,1.63c-1,.1-2,.21-3,.25-.44-.26-.81-.45-1.33-.71L84,38.66a20.35,20.35,0,0,0-2.8-.52c-2.1-.06-4.2,0-6.35-.08a2.5,2.5,0,0,0-.65.06.45.45,0,0,1-.31-.08c-1.07-.14-2.06-.19-3.07-.34a2.29,2.29,0,0,0-3.54.1,1.46,1.46,0,0,1-.81-.14V34c1.7.52,3.09,2.35,4.43.56C71.8,33.29,74,33.35,74,31.17a7.72,7.72,0,0,1,1.32-.52h1.79a.71.71,0,0,1,.34.08c.58,0,1.06-.08,1.67-.14s.94,0,1.46.05c.67-.09,1.23-.21,1.89-.31.5.2.89.37,1.52.65,0-.56-.05-.93-.06-1.39a.75.75,0,0,1,.13-.53c1.63-.22,3.13-.41,4.61-.49-.1.65-.18,1.19-.27,1.92,1.17,0,2.18,0,3.34,0,1-.13,1.92-.29,2.8-.45M84.38,37.91,84,37.68l-.12.25a.73.73,0,0,0,.48,0m2.52-7.53-.25-.17a.27.27,0,0,0,.25.17M86.61,38h0"/><path class="cls-2" d="M101.46,48.38c-.8.12-1.6.3-2.41.35-3.6.21-7.2.45-10.8.56-3,.1-6.07,0-9.33,0-.32-.18-.4-.41-.49-.41-3.37-.07-6.74-.11-10.09-.25a8.1,8.1,0,0,1,.59-.84c-1,0-1.75,0-2.53-.07a1.35,1.35,0,0,1,.19-.38c.45-.05.78-.1,1.25-.11,1.92,0,3.7,0,5.6,0,.46,0,.79,0,1.23,0a2.72,2.72,0,0,1,.62.12,21.33,21.33,0,0,0,2.23-.11c1-.06,1.82-.09,2.77-.09h1c7.17,0,14.19,0,21.25.06a.78.78,0,0,1,.12.45C102.2,47.89,101.83,48.14,101.46,48.38Z"/><path class="cls-3" d="M52.37,49.33c-1.38,0-2.76,0-4.32-.09-3.2-.28-6.23-.42-9.25-.55a17.11,17.11,0,0,1-2.23.32c-2,0-4.06-.07-6.08,0-1.58,0-3.16.23-4.9.23-1.54-.32-2.92-.51-4.3-.7-.78-.11-1.57-.21-2.25-.35a2.41,2.41,0,0,1,.67-.11c.87,0,1.61,0,2.47,0,.47,0,.81,0,1.3,0,2,0,3.91-.08,5.92-.1.55,0,1-.06,1.56-.07,1.93,0,3.71,0,5.61,0,.46,0,.79,0,1.23,0,.24,0,.38,0,.66,0l3.42,0,2.25-.08c1.7.06,3.26.09,4.82.24a7,7,0,0,0,1.58.85C51.13,49,51.76,49.14,52.37,49.33Z"/><path class="cls-4" d="M90.22,19.07a2.91,2.91,0,0,1-.12.61c-.19.83-.25,1.48-.39,2.1A6.15,6.15,0,0,1,89.27,23c-.32-.51-.56-1.13-1-1.24a20.75,20.75,0,0,0-2.49-.29c-.41-.52-.77-.91-1.33-.25a1.23,1.23,0,0,1-.51-.39c.57-.52,1.11-.91,1.59-1.37a9.19,9.19,0,0,0,.83-1.09,4.62,4.62,0,0,0-1.33-.53,14.21,14.21,0,0,0-3.26,0,19.54,19.54,0,0,0-3.07,1C80.2,20.08,81.3,21,82.4,22c0,.07,0,.19,0,.27s0,.23-.09.24a1.13,1.13,0,0,1-.59-.05c-.86-.39-1.69-.69-2.61-1-1.49-.18-1.06-1.26-1.16-2.14,0-.06,0-.2,0-.19l.07,0a.66.66,0,0,0-.14-.58,7.69,7.69,0,0,1-.94-.08.11.11,0,0,1,.08-.17c.49-.14.86-.26,1.37-.38,2.5-.11,4.88-.29,7.25-.3a8.13,8.13,0,0,1,2.63.74,1.51,1.51,0,0,1-.08.51,4.73,4.73,0,0,0-.13.91h.3c.08-.33.15-.66.27-1a.91.91,0,0,1,.53.15,1.63,1.63,0,0,0,.19.27,2.31,2.31,0,0,1,.22-.39A3.33,3.33,0,0,1,90.22,19.07Z"/><path class="cls-5" d="M18.94,48.21l2.35.32c1.38.19,2.76.38,4.18.68-.16.09-.36.07-.77-.07-2.88,0-5.54,0-8.35.16l-5.17.4c-3.28.1-6.57.19-10,.12-.26-1-.07-1.58,1-1.48a10.92,10.92,0,0,0,1.36-.12c2.42,0,4.7,0,7.12,0,2.75,0,5.36-.07,8-.08Z"/><path class="cls-6" d="M88.33,18.17a11,11,0,0,0-2.63-.65c-2.37,0-4.75.19-7.37.29-.71.1-1.16.21-1.7.32a.82.82,0,0,1-.37-.06c-.83-.28-1.66-.71-1.66.77a2.61,2.61,0,0,0,.68.8,3.26,3.26,0,0,1,.57.15s0,.1-.11.13c-1.1.66-2.78.23-3.14,2a1.38,1.38,0,0,1-.67.18c-1.22,0-2.65-1.08-3.46.71a1.24,1.24,0,0,1-.51-.07,3.51,3.51,0,0,0-.89.08H67a2.48,2.48,0,0,0-.39,0c-.32.11-.55.21-.79.31-.32-1.36.25-2,1.53-1.91.86.08,1.74,0,2.88,0a1.71,1.71,0,0,0,2.05-1c1.16.14,1.06-.58,1.06-1.23,0,0,0,0,.12,0,.67-1.17,1.81-2.07,1.51-3.56,0-.22.16-.48.33-.73.13,0,.18,0,.25.12.65,2,1.36,2.42,3,2a1.57,1.57,0,0,0-.06-.23s-.09,0-.14-.05a1.73,1.73,0,0,1,.6-.51,4.68,4.68,0,0,0,2.76.88c2.43,0,4.86,0,7.32.05a9.42,9.42,0,0,1-.66,1.23m-20.5,3.74h-1l0,.27A2.34,2.34,0,0,0,67.83,21.91Z"/><path class="cls-7" d="M51.73,25.68c.46.06.91.13,1.37.17,1.22.11,2.45.51,3.24-1.09.35-.69,1.4-1,2.43-1.72.14,1.89.25,3.22.41,4.79.5,1.7.94,3.15,1.49,4.61a3.87,3.87,0,0,1,1,.14,29.32,29.32,0,0,1-2,2.37,17,17,0,0,1-.81-2.27,5.29,5.29,0,0,1-.06-.6C58.8,31,58.7,30,58.59,28.94c-1.36-1.86-3-2.88-5.28-2.05-.18.07-.41,0-.65-.15C52.32,26.33,52,26,51.73,25.68Z"/><path class="cls-3" d="M66.37,47.79h2.56a8.88,8.88,0,0,1-.71.85c-2-.52-3.77.35-5.55.76-2.54.07-5.07.14-7.61.19-.18,0-.37-.14-.64-.34A7.39,7.39,0,0,1,56.49,49c.95.06,1.28-.39,1.39-1.25Z"/><path class="cls-8" d="M62.74,49.51c1.71-.52,3.43-1.39,5.46-.78,3.49,0,6.86.08,10.23.15.09,0,.17.23.34.43a1.45,1.45,0,0,1-.79.31C72.93,49.63,67.88,49.62,62.74,49.51Z"/><path class="cls-8" d="M111.7,42.84a35.91,35.91,0,0,1,.22,3.87c-1.81.65-3.5,1.16-5.19,1.66a.33.33,0,0,1-.23-.07c-1-.32-1.79-.55-2.6-.87a.28.28,0,0,1,.2-.25c.61,0,1.07,0,1.54,0,2.41,0,2.66-.15,3.4-2.48l.61,0a5.33,5.33,0,0,0,.57-1,.47.47,0,0,1,.35-.25C111,43.22,111.36,43,111.7,42.84Z"/><path class="cls-8" d="M27.44,36.87a6.35,6.35,0,0,1,0-1.25c0-2.55-.06-4.88-.06-7.2,0-3.31-.49-2.84,2.69-2.87.41,0,.83,0,1.35,0a1.92,1.92,0,0,1,.8.38c-.92.07-1.75,0-2.54.13a4.62,4.62,0,0,0-1.59.86c.07,2.75.12,5.39.28,8,.09,1.47.37,2.93.5,4.44a1.87,1.87,0,0,1-.35.26.76.76,0,0,1-.56-.13,5.41,5.41,0,0,0-.41-1.44h-.37s-.05,0-.07-.06a1,1,0,0,1,0-.21l.27-.05A2,2,0,0,0,27.44,36.87Z"/><path class="cls-9" d="M70.8,2.16a2.39,2.39,0,0,0,.56-.2,3,3,0,0,1,0,1.18,26.88,26.88,0,0,0,.73,3.15A12,12,0,0,1,72,8.12c-.51.09-.93.12-1.53.17.71,1.69,1.35,3.21,1.88,4.78a7.12,7.12,0,0,1-.73.41l-.15-.05c-.5-1.78-1-3.57-1.39-5.48,1.94-.39.72-1.55.76-2.34.34-1.48-.79-1.83-1.71-2.4C69.71,2.79,70.25,2.48,70.8,2.16Z"/><path class="cls-2" d="M57.74,47.79c0,.86-.3,1.31-1.25,1.25a9.79,9.79,0,0,0-2.19.19,8.81,8.81,0,0,1-1.81.11c-.73-.2-1.36-.36-2-.59a4.24,4.24,0,0,1-1.47-.88,3,3,0,0,1,1.49-.07,14.13,14.13,0,0,0,2,0Z"/><path class="cls-10" d="M39.28,25.28c.2.44.41.89.61,1.34l1,2.33a23.51,23.51,0,0,1-.09,2.4c0,.22,0,.35,0,.48l-.07.06c-.06.06-.1.1-.09.13s.06.12.11.28A9.33,9.33,0,0,1,40.65,34a.62.62,0,0,1-.48-.07,23.51,23.51,0,0,1-.65-2.89c-.18-1.88-.23-3.78-.31-5.7Z"/><path class="cls-11" d="M10.74,29.6c-.64-1.73,1.19-2.51,1.55-3.87a7,7,0,0,1,1.63.17,39.57,39.57,0,0,1-.83,4c-.1.08-.13.05-.12-.07-.12-.54-.26-1-.42-1.47-.69.58-1.18,1-1.71,1.37A.88.88,0,0,0,10.74,29.6Z"/><path class="cls-11" d="M3.4,48.2a5.71,5.71,0,0,1-1.22.14c-1.05-.1-1.24.46-1.12,1.45a.49.49,0,0,1-.53,0A5.53,5.53,0,0,0,0,49a37.7,37.7,0,0,1,.81-5.55c.26-.06.32-.06.35.05a5.45,5.45,0,0,1-.13.88,5.51,5.51,0,0,0,.39.76,6.17,6.17,0,0,1-.53,1.38c0,1.08.5,1.45,1.62,1.24a4.05,4.05,0,0,1,.83.05A.89.89,0,0,1,3.4,48.2Z"/><path class="cls-12" d="M13.79,32.49a6.93,6.93,0,0,1,1.58.12c.1.24.09.38-.06.52l-3.41-.08-1.68.11a.63.63,0,0,1-.34-.09,3.14,3.14,0,0,1-.29-.38,4.44,4.44,0,0,1,.07-1.17A17.45,17.45,0,0,1,11,30c.79,1,1.41.62,2-.06l0,0c-.56.67-1.13,1.33-2,2.28C12,32.33,12.82,32.42,13.79,32.49Z"/><path class="cls-13" d="M76.18,10.67a14.86,14.86,0,0,1,2.06-.49c.54.19.94.3,1.34.42v.13c-.11.85-.21,1.58-.38,2.32a1.19,1.19,0,0,1-.33,0,10.92,10.92,0,0,1-2.06-.27c0-.29-.06-.45-.09-.62,0,0,0,0,.11-.06a1.9,1.9,0,0,0-.11-.89C76.51,11,76.34,10.83,76.18,10.67Z"/><path class="cls-13" d="M45.21,25a21.44,21.44,0,0,1,2.11-1c.21.57.35,1.09.59,1.73a1.45,1.45,0,0,1,.13.53s0,0-.12,0c-.86.52-1.61,1-2.4,1.43C45.4,26.71,45.3,25.84,45.21,25Z"/><path class="cls-14" d="M91.17,27.86A2,2,0,0,1,92,28c-.08,1.86,1.47,1.32,2.25,1.77a1.78,1.78,0,0,0,.25.29,13.34,13.34,0,0,1-2.74.4l-1.34-.92Z"/><path class="cls-12" d="M103.87,47.51c.84.24,1.67.47,2.58.8-1.52,1.31-3.13.68-4.87.1a4.69,4.69,0,0,1,1.18-.83A7,7,0,0,1,103.87,47.51Z"/><path class="cls-15" d="M78,5.63A25.23,25.23,0,0,1,76.43,8c-.23.06-.29.05-.35,0-.19-.32-.38-.55-.54-.87.3-.83.24-1.31-.75-1.22a2.34,2.34,0,0,1-1.15-.34V5.06a18.85,18.85,0,0,1,2.66.08C76.73,6.44,77.48,5.55,78,5.63Z"/><path class="cls-11" d="M106.85,48.4c1.57-.53,3.26-1,5.07-1.56a2.71,2.71,0,0,1,.6.52,1.57,1.57,0,0,1-.76.72c-1.19.19-2.16.4-3.14.61Z"/><path class="cls-16" d="M20.48,41.81a4,4,0,0,1,.49-.27c.08,0,.09,0,.12.15a5.63,5.63,0,0,0,1.34.18c.14,0,.2,0,.26.11a.74.74,0,0,1-.12.5c-1.2.41-1.13,1.33-1.24,2.2a.72.72,0,0,1-.52-.17c-.31-.44-.58-.95-.94-1-.7-.14-1.45,0-2.15-.13.84-.36,1.67-.63,2.56-1A3.29,3.29,0,0,0,20.48,41.81Z"/><path class="cls-4" d="M78.21,16.49c.15.05.22.05.24.08a1.57,1.57,0,0,1,.06.23c-1.62.47-2.33,0-2.9-2A1.74,1.74,0,0,1,76,14.1l1.86,0a4.51,4.51,0,0,1,.84,0l.16.14L76.6,16l.27.33Z"/><path class="cls-13" d="M69,.09A.27.27,0,0,1,69.19,0c.55.66,1,1.32,1.57,2.07a8.64,8.64,0,0,1-1.71,1c-.11,0-.11,0-.14,0a.34.34,0,0,0-.25-.19,2.66,2.66,0,0,1,0-.39A13.13,13.13,0,0,0,68,.93C68.29.68,68.59.43,69,.09Z"/><path class="cls-17" d="M16.73,38.36l.48.43a21.76,21.76,0,0,1,.11,2.71,1.9,1.9,0,0,1-.36.74,1.43,1.43,0,0,1-.82-.17c-.2-1-.4-1.87-.58-2.8a1.79,1.79,0,0,1,.36-.47C16.26,38.64,16.49,38.5,16.73,38.36Z"/><path class="cls-18" d="M60.55,32.43c-.43-1.45-.87-2.9-1.3-4.49a1.85,1.85,0,0,1,1.14-.36,6.85,6.85,0,0,1,.44,1.62C60.72,30.36,60.64,31.39,60.55,32.43Z"/><path class="cls-9" d="M74.26,11c.47.41.95.82,1.54,1.36a1.88,1.88,0,0,1,.52.69,11.91,11.91,0,0,1-2.42-.09c-.4-1.24-.79-2.37-1.23-3.63a4.77,4.77,0,0,1,1.23.16A15.32,15.32,0,0,0,74.26,11Z"/><path class="cls-3" d="M94.35,29.67c-.89-.39-2.44.15-2.24-1.7,0-.12.15-.14.22-.17.82,0,1.57,0,2.67,0A13.9,13.9,0,0,1,94.35,29.67Z"/><path class="cls-6" d="M62.34,26.22c0-1.37.07-2.74.08-4.11s0-3,0-4.48l.5,0c0,2.15.06,4.31.09,6.6,0,.48,0,.81,0,1.38,0,.38,0,.53-.15.67Z"/><path class="cls-19" d="M63,26.27c0-.15,0-.3.07-.56a10.78,10.78,0,0,1,.87,1.39c.41-1.26.73-2.26,1.14-3.31.14-.06.21-.05.39.05a3.68,3.68,0,0,1,.65.67c0,.25,0,.4-.09.52l-.79-.09c-.46,1.11-.88,2.11-1.39,3.13a1,1,0,0,1-.55,0C63.12,27.39,63.05,26.83,63,26.27Z"/><path class="cls-4" d="M79.27,13c.1-.72.2-1.45.31-2.3a10.94,10.94,0,0,1,2.3-.13c-1.16,1.44-2,2.48-2.95,3.58-.09.06-.2,0-.25-.15a.54.54,0,0,1,.07-.45l.31-.17A1.67,1.67,0,0,0,79.27,13Z"/><path class="cls-8" d="M38.92,48.75c2.9.07,5.93.21,9,.46a18.38,18.38,0,0,1-3.72.26C42.49,49.35,40.77,49,38.92,48.75Z"/><path class="cls-20" d="M60.86,29.08c-.12-.46-.24-.93-.37-1.52A8.68,8.68,0,0,1,61,26a3,3,0,0,1,1,.34c.23.3.41.54.36.71-.17.58-.42,1.14-.64,1.78,0,.07,0,.22-.11.23Z"/><path class="cls-21" d="M48,26.27c0-.13,0-.27,0-.51a2.53,2.53,0,0,1,3.61-.14,4.43,4.43,0,0,1,.91,1.13C51,26.23,49.67,25.23,48,26.27Z"/><path class="cls-6" d="M42.22,28.75a1.26,1.26,0,0,1,.66.55l-.12.32a1.61,1.61,0,0,1,.29.09c.07,0,.11.12-.08-.09l-2.14,1.63c.06-.72.11-1.43.2-2.26A4.26,4.26,0,0,1,42.22,28.75Z"/><path class="cls-18" d="M73.52,5c.12.15.12.28,0,.5-.55.28-1,.47-1.44.66-.27-1-.55-1.91-.75-3C71.51,4.37,72,5.19,73.52,5Z"/><path class="cls-17" d="M19.13,49.6a24,24,0,0,1-2.5-.3c2.53-.11,5.19-.2,7.94-.25C22.85,49.24,21.05,49.38,19.13,49.6Z"/><path class="cls-7" d="M17.08,42.24a2.39,2.39,0,0,1,.27-.63l3,.22c.09.15.05.32-.18.55C19,42.37,18,42.3,17.08,42.24Z"/><path class="cls-18" d="M78.11,5.61c-.63-.06-1.38.83-1.67-.45a10.83,10.83,0,0,1,2,.24s0,.1,0,.12S78.25,5.57,78.11,5.61Z"/><path class="cls-22" d="M1.18,43.42H.92c-.09-.14-.09-.27,0-.56a4.92,4.92,0,0,1,.33-1,2.4,2.4,0,0,1,.84.67c0,.26,0,.41,0,.56H2C1.65,43.23,1.42,43.33,1.18,43.42Z"/><path class="cls-23" d="M76.76,11.28a2.52,2.52,0,0,1,.09.83,1.92,1.92,0,0,1-.92-.72A2,2,0,0,1,76.76,11.28Z"/><path class="cls-3" d="M1.14,41.89a3.83,3.83,0,0,1-.24.87c-.09.06-.18,0-.27-.11a4.52,4.52,0,0,1-.21-.76s.08-.12.11-.18a.76.76,0,0,1,.51,0A.23.23,0,0,1,1.14,41.89Z"/><path class="cls-4" d="M79.54,10.5a3,3,0,0,1-1.19-.35A3,3,0,0,1,79.54,10.5Z"/><path class="cls-18" d="M76.43,13a3.84,3.84,0,0,1-.52-.62,1.61,1.61,0,0,1,.7-.2.7.7,0,0,1,.11.64C76.56,13,76.5,13,76.43,13Z"/><path class="cls-14" d="M27.42,37a1.68,1.68,0,0,1,0,.8A1.82,1.82,0,0,1,27.42,37Z"/><path class="cls-18" d="M76.72,11.21a3.31,3.31,0,0,1-.8.07.71.71,0,0,1,.17-.61A2.91,2.91,0,0,1,76.72,11.21Z"/><path class="cls-24" d="M.35,41.94a2,2,0,0,1,.23.7A1.78,1.78,0,0,1,.35,41.94Z"/><path class="cls-25" d="M5.13,53.42c0,.06-.15.09-.27,0C4.91,53.4,5,53.39,5.13,53.42Z"/><path class="cls-23" d="M74.89,38.12c2.09,0,4.19,0,6.29,0a20.35,20.35,0,0,1,2.8.52l-1.75,1.5a5.52,5.52,0,0,1,1.29.8,4.4,4.4,0,0,1-.92,1.48c-1-1.16-1.92-.89-2.84,0a5.83,5.83,0,0,1-4.7,1.93c-1.55-.12-3.11,0-4.66,0a2,2,0,0,1-2.28-2.21h2.24l.78-3.47c1.43,2.47,1.91,2.74,3,1.87L74,38.12h.94Z"/><path class="cls-26" d="M73.87,38c.13.83.19,1.58.26,2.51-1.08.87-1.56.6-3-1.87l-.78,3.47c-.68,0-1.4,0-2.31-.07a19,19,0,0,1-1.35-2.61A10.48,10.48,0,0,1,66,41.52c-.25-.61-.35-1.19-.52-1.74s-.28-1.15-.57-1.23a2.92,2.92,0,0,0-1.54.27c-.45.14-.88.36-1.43.57-.34.54-.59,1-.93,1.52a9.84,9.84,0,0,1-.42-2.43c1,.15,2,.2,2.18-.93s.9-2.29-.45-3.29a5.42,5.42,0,0,1,.76-1.38c.73,1.39,1.33,2.74,2.07,4,.24.41.85.61,1.28.91h4.38C71.81,37.85,72.8,37.9,73.87,38Z"/><path class="cls-27" d="M96.79,34.29c4,0,7.95-.07,11.94.11,1.07.05,2.48.33,2.08,2.13-.43.26-.68.46-1.06.66a5.09,5.09,0,0,1-1.19-.09c-.34-.1-.62-.13-1-.24-1.48-.14-2.86-.2-4.32-.25h-.39c-.76,0-1.39,0-2.13,0l-.67,0c-.48.18-.85.37-1.31.56-.63-.1-1.15-.2-1.67-.3C97,36,96.91,35.2,96.79,34.29Z"/><path class="cls-28" d="M66.45,37.66a2.44,2.44,0,0,1-1.28-.77c-.74-1.27-1.34-2.62-2.07-4.09a.7.7,0,0,1-.09-.38.49.49,0,0,1,.07-.31,7.31,7.31,0,0,1,1-.84,2.07,2.07,0,0,1,.5.61s0,.1,0,.1.07-.11.17-.09c.72.44,1.19,1,2.08.19.37-.34,1.42.07,2.16.12a5.75,5.75,0,0,0,1.55,0c1.18-.27,2.32-.64,3.48-1,.1,2.11-2.14,2.05-3.06,3.27-1.34,1.79-2.73,0-4.43-.56v3.71"/><path class="cls-22" d="M82.7,42.49c.28-.45.57-.9.9-1.45,1-.21,2-.32,3-.42a4.59,4.59,0,0,1,0-1.63c.26-.55.7-1.35,1.15-1.42a39.68,39.68,0,0,1,5.72-.24c0,.31-.2.7-.29.68-1.15-.26-1.56.33-2,1.3-.59,1.28-1.59,1.26-2.8.14-.49,2.7-2.1,4-5,3.71a3.76,3.76,0,0,1,.38,1.2,15.43,15.43,0,0,1-2.38.13C81.86,43.75,82.28,43.12,82.7,42.49Z"/><path class="cls-29" d="M100.16,36.61a1.4,1.4,0,0,1,.57.06,1.89,1.89,0,0,1,.38.89L99.28,40.1l-1.53-.55-.12,1.69-2-.83a22.58,22.58,0,0,1-.51,2.53,1.26,1.26,0,0,1-.33-.07,5.31,5.31,0,0,0-.64.12,9.49,9.49,0,0,1-1.43,0c0-.07,0-.2,0-.28.34-.27.63-.45,1.06-.73a12.78,12.78,0,0,1-2-.47A6.46,6.46,0,0,1,93.36,41a.79.79,0,0,0,.26.1.64.64,0,0,1-.3-.26c.53-.76.93-1.71,1.6-2a1.56,1.56,0,0,0,1.19-1.68c.25-.09.5-.19.86-.29l1.89.3A6.88,6.88,0,0,0,100.16,36.61Z"/><path class="cls-14" d="M93.32,40.93c-.49.15-1,.31-1.65.55-1.58.42-3.43,0-3.76,2.18-.82-.84-.77-.1-1,.34-1.07.09-2,.23-3,.36l-.51-1.2c2.88.32,4.49-1,5-3.71,1.21,1.12,2.21,1.14,2.8-.14.45-1,.86-1.56,2-1.3.09,0,.27-.37.43-.67A15.23,15.23,0,0,1,96,37.17c.15.84-.14,1.31-1,1.67-.67.27-1.07,1.22-1.6,2Z"/><path class="cls-16" d="M64.57,31.87,64,31.15a19.94,19.94,0,0,1-.94-2.4,1.7,1.7,0,0,1,.33,0h.68a9.66,9.66,0,0,1,1.61.83c.24.16.36.63.57.66,1.22.15,2.44.21,3.71.31a5.71,5.71,0,0,1-.32-1.46,2.18,2.18,0,0,1,.85.1c.24,1.16,1,1.19,1.87,1.14a18.75,18.75,0,0,1,2.8.08c0,.15,0,.21,0,.26-.37.15-.75.3-1.19.52-1.24.4-2.38.77-3.56,1a5.75,5.75,0,0,1-1.55,0c-.74-.05-1.79-.46-2.16-.12-.89.82-1.36.25-2.08-.19Z"/><path class="cls-22" d="M89.24,24.06c.73.74,1.18,1.47.4,2.51-.23.3-.09.88-.18,1.45a3.53,3.53,0,0,1-.74.43L84.08,29c-.13,0-.14,0-.15-.1l-.39-1.4a12.81,12.81,0,0,1,.1-1.37c.85-.47,1.68-.84,2.5-1.2a4.4,4.4,0,0,1-.55-.91L86,24c.8-.24,1.48-.48,2.1-.71l1.18.73m-4.19,3.51c1.76.66,1.21-.61,1.32-1.45H84C84.3,26.72,83.37,27.73,85.05,27.57Z"/><path class="cls-14" d="M75.34,30.65c-.13,0-.14-.11-.07-.33.42-.57,1.16-1.23,1.07-1.38-.47-.77-.13-1.49-.17-2.24-.06-1.26.36-1.87,1.55-2,2.22-.24,3.18.23,3.47,1.73a3.17,3.17,0,0,1,0,1.1c-.52.11-.94.2-1.42.27-.07,0-.21-.05-.2-.17a15.94,15.94,0,0,0-.69-1.44l-1.38,1.52a2.49,2.49,0,0,1,.63.37c-.44.3-.93.53-1,.89A5.71,5.71,0,0,0,77,30.63Z"/><path class="cls-22" d="M79.87,27.81a12.08,12.08,0,0,1,1.41-.22.76.76,0,0,1,.48.35c.11,1.77,1.55.57,2.18,1.12h0a1,1,0,0,1-.13.51c-.56.31-1,.52-1.45.73a6.19,6.19,0,0,1-1.76.18C80.3,29.5,80.09,28.66,79.87,27.81Z"/><path class="cls-30" d="M88.69,28.56a2.55,2.55,0,0,1,.79-.44c.55-.1,1-.18,1.57-.26a7,7,0,0,1-.64,1.64,13.56,13.56,0,0,1,1.19.89c-1,.09-2,.09-3.18.09C88.51,29.75,88.59,29.21,88.69,28.56Z"/><path class="cls-15" d="M77.13,30.64a3.77,3.77,0,0,1,0-1.67c.12-.36.61-.59,1.17-.87.4,0,.56,0,.71.2a11.89,11.89,0,0,1-.17,2.05l-1.43.31Z"/><path class="cls-31" d="M78.94,30.32a18.33,18.33,0,0,1,.13-2.07,2.06,2.06,0,0,1,.52-.5l.21.05a22.1,22.1,0,0,1,.7,2.67,3.13,3.13,0,0,1-1.38.05A.4.4,0,0,1,78.94,30.32Z"/><path class="cls-28" d="M70.8,37.7c-1,.1-2.08.1-3.28.1C68.24,36.68,69.59,36.6,70.8,37.7Z"/><path class="cls-14" d="M82.49,30.32a7,7,0,0,1,1.34-.64A4.44,4.44,0,0,1,84,31C83.38,30.69,83,30.52,82.49,30.32Z"/><path class="cls-14" d="M78.82,30.35c.12,0,.16.09.18.16a6,6,0,0,1-1.53.21A7.31,7.31,0,0,1,78.82,30.35Z"/><path class="cls-22" d="M84.33,38a1,1,0,0,1-.43,0l.12-.25A.84.84,0,0,1,84.33,38Z"/><path class="cls-22" d="M86.85,30.42a.45.45,0,0,1-.2-.21A.51.51,0,0,1,86.85,30.42Z"/><path class="cls-28" d="M74.83,38.06c-.08.06-.22.06-.47.06A.92.92,0,0,1,74.83,38.06Z"/><path class="cls-20" d="M95.2,43l.42-2.54,2,.83.12-1.69,1.53.55c.54-.74,1.15-1.6,1.94-2.54l1.76-.93c.06,0,.12,0,.28.08l2.17,1.68v1.46l2.24-2.91a1.63,1.63,0,0,1,.82.25,3.56,3.56,0,0,0-.18,3.88l-.43.75c-.35-.18-.78-.56-.95-.46-1.77,1,.7,1.72-.05,2.69a11.68,11.68,0,0,1,2.06.11v.51c-.64,2.34-.89,2.52-3.3,2.49-.47,0-.93,0-1.64-.06a12.21,12.21,0,0,0-1.52-.05c-7,0-14,0-21.21-.09.27-1.11.65-2.15,2.06-1.23.38.36.74.75,1.13.79.85.08,1.71,0,2.68,0,.36-.17.62-.36,1-.55l5.59-.33c.54-.14.95-.29,1.36-.43a6.11,6.11,0,0,1-.49-.93C94.82,43.76,95,43.36,95.2,43Z"/><path class="cls-32" d="M82.6,42.44a13,13,0,0,1-1.29,2.07,3.85,3.85,0,0,1-1.25.17,9.73,9.73,0,0,0-1.36,0c-1.44.27-2.08,1.21-1.77,2.35-.67.07-1.2.1-1.74.14a2.54,2.54,0,0,1-.6-.11,6,6,0,0,0-1.27.07c-1.78,0-3.56.06-5.54,0A9,9,0,0,1,67,45.21l-1.16.8-1.23-.92a10.79,10.79,0,0,1,.2,2.17,5.48,5.48,0,0,1-1.47,0,5.67,5.67,0,0,1-.89-.45c.3-.94,1.38-1.88-.32-2.48a1.19,1.19,0,0,1,.42-.54,10.44,10.44,0,0,1,2.71-1.06c1-.06.93-.49.92-1.13l.57-2.08c.5,1.09.83,1.81,1.24,2.63a2.25,2.25,0,0,0,2.46,2.27c1.55,0,3.11-.1,4.66,0a5.83,5.83,0,0,0,4.7-1.93c.92-.91,1.8-1.18,2.84,0"/><path class="cls-29" d="M80.19,44.68l1.12,0,2.5-.27c1.1-.13,2.07-.27,3.15-.34.12,0,.15.09.09.18-1.28.53-2.51,1-3.73,1.4-1.4-.79-1.78.25-2.19,1.34a1.15,1.15,0,0,1-.89,0c-.68-.42-1.18-.71-1.65-1Z"/><path class="cls-17" d="M63.36,47.3h1.52l1.58,0a.51.51,0,0,1-.06.38c-2.81.07-5.6.07-8.52.07-1.83,0-3.52,0-5.36,0-.15-.06-.14-.19,0-.23a25.71,25.71,0,0,1,2.57-.26C57.83,47.27,60.59,47.29,63.36,47.3Z"/><path class="cls-33" d="M80.06,44.68A11.42,11.42,0,0,1,78.59,46c.47.27,1,.56,1.53.94a18.63,18.63,0,0,1-2.68.18,1.61,1.61,0,0,1-.38-.08c-.44-1.12.2-2.06,1.64-2.33A9.73,9.73,0,0,1,80.06,44.68Z"/><path class="cls-23" d="M66.59,47.34c-.57,0-1,0-1.58-.07a11.39,11.39,0,0,1-.45-2.18l1.23.92,1.16-.8c.25.74.44,1.28.68,1.9A3.15,3.15,0,0,1,66.59,47.34Z"/><path class="cls-11" d="M102.52,47.13a3.71,3.71,0,0,1,1.34,0,.32.32,0,0,1,0,.32,4.48,4.48,0,0,1-1.07.08A.69.69,0,0,1,102.52,47.13Z"/><path class="cls-17" d="M76.93,47.06a.7.7,0,0,1,.37.08,12.11,12.11,0,0,1-2,.13A13.11,13.11,0,0,1,76.93,47.06Z"/><path class="cls-33" d="M73.44,47.19a3.28,3.28,0,0,1,1-.12A3.28,3.28,0,0,1,73.44,47.19Z"/><path class="cls-29" d="M66.1,25.05c0-.14,0-.29,0-.64a2,2,0,0,0-.31-.68c0-.13,0-.27,0-.5a1.67,1.67,0,0,1,.84-.37,1.22,1.22,0,0,0,.43-.06h1a1.25,1.25,0,0,1,.49.09,4.07,4.07,0,0,1,.73,1c0,.24,0,.38-.13.51-.78.42-1.44.85-2.15,1.28a.25.25,0,0,1-.22-.07C66.5,25.37,66.3,25.21,66.1,25.05Z"/><path class="cls-6" d="M65.72,23.73a1.42,1.42,0,0,1,.37.58,1.23,1.23,0,0,1-.55-.46C65.52,23.76,65.65,23.74,65.72,23.73Z"/><path class="cls-23" d="M63.29,47.21c-2.7.08-5.46.06-8.22.08-.81,0-1.63.15-2.7.25l-1.88.18c-.44,0-.89,0-1.44,0a47.7,47.7,0,0,1-4.91-.18c-.16-1.05-.19-2-.28-3-1.42-.42-3.17.45-4.07-1.49,0-.34,0-.59.07-.93,0-.15,0-.21.16-.26a14.82,14.82,0,0,0,2.11-.14c.32-.06.79-.28.88-.55.52-1.36-.07-2.23-1.52-2.44a1.18,1.18,0,0,1-.65-.49c0-1.29,0-2.43-.05-3.69a5.23,5.23,0,0,0,0-.56c0-.53,0-1.07,0-1.79v-.36s0,0,.17,0a18.79,18.79,0,0,0,2.57-.12c1.35-.27,1.54-1.28.5-2.36.18-1.26.36-2.53.54-3.93a1.16,1.16,0,0,1,.56-.44,25.6,25.6,0,0,1,.39,2.85c.11,1,.21,1.73.28,2.59A10,10,0,0,1,46,31.94c-.14,1.25-.18,2.4-.25,3.54-.06,1,.45,1.13,1.25,1A3.73,3.73,0,0,1,48,36.37a4.69,4.69,0,0,0,1,.1l1,0c.06,0,.17.07.18.19a1.34,1.34,0,0,1-.14.8,9.47,9.47,0,0,1-1.74-.13,9.71,9.71,0,0,0-1.64-.61c.15,2.43.28,4.56.34,6.76.06.94.19,1.79.32,2.69.81-.27,1.31-.39,1.77-.59s1.1-.57,1.64-.86c-.49-.28-1-.56-1.48-.86-.06,0-.07-.17-.11-.27,2-1.49,2.25-2.07,1.69-4A1.25,1.25,0,0,1,50.9,39a2.48,2.48,0,0,1,.67-.52c1,0,1.82,0,2.72,0a3.07,3.07,0,0,1,.28.35c.06.38.12.65.22,1.09l1.43-1.14a6.64,6.64,0,0,0,.66.84,6.53,6.53,0,0,0,1,.57,4.18,4.18,0,0,1,.22-.91,1.8,1.8,0,0,1,2.41-.87h0c.14.82.28,1.63.51,2.57-.84,1.32-.19,2.49.05,3.75-.26,1.2.15,1.91,1.32,2.11a5.24,5.24,0,0,1,.91.34M43.44,33.44l-1.91.12c.43.86.58,1.6,1,1.92s1-.1,1.58-.18a5.28,5.28,0,0,0-.71-1.86M57.28,44.75l.18.72.45-.21a2.4,2.4,0,0,0-.63-.51m1.18-4.29h0"/><path class="cls-1" d="M22.06,48a19.3,19.3,0,0,1-2.4,0,1.31,1.31,0,0,1,.06-1.12c.81,0,1.48,0,2.14,0,1.13.08,1.79-.33,1.9-1.56,1.82-.14,3.51-.26,5.2-.26,0,.26,0,.41,0,.68.1.67.2,1.21.3,1.85,0,.15,0,.21,0,.27-1.88.06-3.77.12-5.81,0C22.73,47,22.35,47.18,22.06,48Z"/><path class="cls-1" d="M36.45,47.78c-1.78,0-3.56.06-5.48,0a.34.34,0,0,1-.14-.26l.12,0,2-.51a4.51,4.51,0,0,1-.11-1.4,28.22,28.22,0,0,1,3.68,0,29,29,0,0,0,2.41,1.8l-.59.4a1.7,1.7,0,0,1-.6,0,6.1,6.1,0,0,0-1.27.05m-2.54-1.31h.28L34,46.18A.29.29,0,0,0,33.91,46.47Z"/><path class="cls-16" d="M38.46,47.79a1.54,1.54,0,0,1,.45-.42,14.88,14.88,0,0,1-2.29-1.82,19.12,19.12,0,0,1,2.57-.66l.08,0c.17-.06.24-.06.35,0,.27.51.72.94.7,1.36,0,1.09.53,1.29,1.41,1.29,0,.06,0,.18,0,.18C40.7,47.75,39.65,47.78,38.46,47.79Z"/><path class="cls-29" d="M41.88,47.74c-.14,0-.15-.14-.07-.22-.3-1.54-.3-1.54,1-2.77.45,0,.78,0,1.11-.07,0,.92.07,1.83.09,2.85A10.57,10.57,0,0,1,41.88,47.74Z"/><path class="cls-16" d="M19.57,46.87a9.15,9.15,0,0,0-.05,1.1c-.09.11-.23.14-.48.21s-.21,0-.34-.16a7.86,7.86,0,0,1-.37-1.25C19,45.43,19.21,46.52,19.57,46.87Z"/><path class="cls-16" d="M22.18,48c.17-.85.55-1.08,1.13-.14A3.38,3.38,0,0,1,22.18,48Z"/><path class="cls-16" d="M30.83,47.51s0,.14,0,.22a6,6,0,0,1-1.42.17c-.13-.1-.14-.16-.06-.33.3-.29.51-.48.66-.6Z"/><path class="cls-16" d="M36.57,47.81a3.31,3.31,0,0,1,1-.1A3.59,3.59,0,0,1,36.57,47.81Z"/><path class="cls-13" d="M4.87,38.4a19.45,19.45,0,0,1,1.52-2.75,4.31,4.31,0,0,1,1.31-.21,19.55,19.55,0,0,1,.21,2c-.06,0-.19.06-.28.09a7.37,7.37,0,0,1-.7.3l-1.83.59Z"/><path class="cls-8" d="M4.79,38.46a.21.21,0,0,1,.3.1,4.46,4.46,0,0,1-.32,1.69c-1.19,0-2.26.06-3.33.08-.19-1.63,1.05-1.2,2-1.33C4,38.82,4.34,38.67,4.79,38.46Z"/><path class="cls-34" d="M7.69,35.31c-.36.1-.72.2-1.2.3a8.45,8.45,0,0,1,1.17-2.14c.24,0,.3,0,.4.06A10.73,10.73,0,0,1,8,35.27a.6.6,0,0,0-.31,0Z"/><path class="cls-35" d="M8,33.44l-.28,0a9.1,9.1,0,0,1,1.44-2l.38.21a4.85,4.85,0,0,1-.09,1.14A9.83,9.83,0,0,1,8,33.44Z"/><path class="cls-11" d="M9.66,31.52a.38.38,0,0,1-.37-.17,3.92,3.92,0,0,1,.09-1,1.07,1.07,0,0,1,.14-.27l1.12-.46a.15.15,0,0,1,.2.1.46.46,0,0,1,0,.18C10.49,30.43,10.12,31,9.66,31.52Z"/><path class="cls-12" d="M9.48,30.11s-.05.11-.08.13S9.39,30.15,9.48,30.11Z"/><path class="cls-29" d="M89.24,23.94a5.86,5.86,0,0,1-1.18-.61,10.73,10.73,0,0,1-2.12.6c0-.87-1.46-1.68-.06-2.38a11.54,11.54,0,0,1,2.44.21c.39.11.63.73,1,1.24C89.26,23.35,89.25,23.59,89.24,23.94Z"/><path class="cls-7" d="M72.69,21.86c.27-1.71,2-1.28,3.16-1.92A1.64,1.64,0,0,0,78,19.32c.11.81-.32,1.89,1,2.11a13.86,13.86,0,0,1-2.34.11,2,2,0,0,1-.29-.1.64.64,0,0,0-.45-.15,9.82,9.82,0,0,1-1.14-.15A19.31,19.31,0,0,0,72.69,21.86Z"/><path class="cls-32" d="M76.76,21.57c.74,0,1.49,0,2.36-.08a11.28,11.28,0,0,1,2.64,1c0,.16.11.3,0,.33a1.09,1.09,0,0,1-.42,0c-1.22,0-2.3-.1-3.37,0S76.68,22.47,76.76,21.57Z"/><path class="cls-6" d="M81.51,22.9l.37-.07a6.11,6.11,0,0,0,1.39-.46,2.62,2.62,0,0,1,0-.28,1.42,1.42,0,0,0,0-.21,6.29,6.29,0,0,1,.55-.91,1.26,1.26,0,0,1,.67.34,8.47,8.47,0,0,1-.34,2.12,1.21,1.21,0,0,0-.26.39c0,.07,0,.2-.12.21l-.6.07c-.24,0-.37,0-.61,0a11.93,11.93,0,0,1-1.19-.36A4,4,0,0,1,81.51,22.9Z"/><path class="cls-14" d="M84.25,23.39c.13-.65.26-1.3.35-2,.46-.79.82-.4,1.23.12-1.35.78.07,1.59,0,2.46,0,.12-.08.12-.34.13h-1l-.56,0a.7.7,0,0,1,.1-.25Z"/><path class="cls-9" d="M78,19.25a1.48,1.48,0,0,1-2,.67c-.11,0-.12-.09,0-.16a6.9,6.9,0,0,0,.59-.43,7,7,0,0,0-.16-1.2,2,2,0,0,1,.33,0l.27.07a1.28,1.28,0,0,0,.06.25,4.34,4.34,0,0,0,1,.57S78,19.19,78,19.25Z"/><path class="cls-6" d="M88.25,18.77a.49.49,0,0,1,.31-.07,3.76,3.76,0,0,1-.14,1h-.3A4.73,4.73,0,0,1,88.25,18.77Z"/><path class="cls-7" d="M83.27,22.44c-.4.13-.8.25-1.3.37-.1,0-.16-.14-.16-.22a1.43,1.43,0,0,1,.64-.11Z"/><path class="cls-12" d="M78,19.06a5.58,5.58,0,0,1-1-.54,1.17,1.17,0,0,1,.86,0,1,1,0,0,1,.09.51Z"/><path class="cls-12" d="M77.08,18.2a.46.46,0,0,1-.3,0,8.51,8.51,0,0,1,1.41-.35A6.45,6.45,0,0,1,77.08,18.2Z"/><path class="cls-23" d="M83.19,21.87c.12,0,.11.15,0,.23a2.59,2.59,0,0,1-.74.06.81.81,0,0,1,0-.19A2.49,2.49,0,0,1,83.19,21.87Z"/><path class="cls-33" d="M82.44,22.24a2.47,2.47,0,0,1,.72-.08c.1,0,.12.14.11.21a2.06,2.06,0,0,1-.71.1C82.46,22.47,82.43,22.32,82.44,22.24Z"/><path class="cls-9" d="M78.08,19a.68.68,0,0,1,0-.47A.73.73,0,0,1,78.08,19Z"/><path class="cls-6" d="M89.22,18.81c0-.07.11-.07.26-.08a.46.46,0,0,1-.07.35A1.63,1.63,0,0,1,89.22,18.81Z"/><path class="cls-1" d="M18.32,46.87c.1.33.2.67.31,1.11-2.61.16-5.22.21-7.93.16a7,7,0,0,1,.53-1.63H1a9.42,9.42,0,0,0,.43-1.44,2.64,2.64,0,0,0-.32-.72c0-.23,0-.47.07-.82A1.38,1.38,0,0,1,2,43.21a3.38,3.38,0,0,1,.37.35l.15-.17-.44-.27a1,1,0,0,1,.13-.55,1,1,0,0,1,.81.09c0,1.71,1.44.73,2.07,1.23l-1,.46,0,.54c.71.14,1.41.28,2.2.5a10.33,10.33,0,0,0,1.56-.08,2.72,2.72,0,0,1,.43,0c1.39,0,2.63,0,3.93.12a2.43,2.43,0,0,0,.67-.06,10.12,10.12,0,0,1,1.57.09c1,.11,1.84.16,2.69.31-.49,1.55.66,1,1.25,1.13m-4-.17.52.07V46.6a1.14,1.14,0,0,0-.52.1m-1.86-.07a1,1,0,0,0,.09.18s.09,0,.14,0A.3.3,0,0,0,12.43,46.63Z"/><path class="cls-22" d="M.89,46.55c3.48,0,6.87,0,10.34,0-.26.64-.45,1.09-.67,1.6-2.32.08-4.6.1-7,.11-.13-.12-.15-.22-.14-.45a5.7,5.7,0,0,0,.1-.85l-1.11.84c-1,.24-1.54-.13-1.5-1.21m5.27,1.1-.07,0S6.18,47.69,6.16,47.65Z"/><path class="cls-12" d="M72.26,20.29c-1.19-2.1-.94-4.44-1.4-6.76a.64.64,0,0,1,.48-.1.39.39,0,0,1,.28.12.4.4,0,0,1,.14.32c.48,3.3.88,4,1.83,3.57-.26-.56-.83-1.2-.71-1.65.27-1-.4-1.47-.79-2.17a13.62,13.62,0,0,1,3.08.14c0,.42,0,.7,0,1s-.29.5-.25.72c.3,1.49-.84,2.39-1.51,3.49a.77.77,0,0,1-.26-.23l.13.34C73.32,19.71,73.42,20.43,72.26,20.29Z"/><path class="cls-20" d="M72.6,21.91a8.65,8.65,0,0,1,2.23-.67c.14.54.29,1.19.18,1.24-1.69.74-.37,1.1,0,1.56-2,.2-3.89.4-5.79.54,0-.06,0-.18,0-.18a1.56,1.56,0,0,1,.13-.58,17.75,17.75,0,0,1,2.59-.5,3.21,3.21,0,0,1-.46-.82,2,2,0,0,1,.33-.32H72Z"/><path class="cls-7" d="M71.93,22.09c.09.08,0,.09-.24.09h-2v.22l1.73.15.53.77c-.81.11-1.64.23-2.59.4a3,3,0,0,1-.75-.83C69.28,21,70.71,22.11,71.93,22.09Z"/><path class="cls-11" d="M76.26,18.07a2.37,2.37,0,0,1,.19,1.25c-.13.06-.28.05-.3-.05a4.24,4.24,0,0,0-1.06-.54h-.48C74.6,17.36,75.43,17.79,76.26,18.07Z"/><path class="cls-4" d="M76.17,19.37l.22,0a1.35,1.35,0,0,1-.46.34,1.24,1.24,0,0,1-.66-.18,4.12,4.12,0,0,1-.39-.81.9.9,0,0,1,.3,0A8.61,8.61,0,0,1,76.17,19.37Z"/><path class="cls-35" d="M75.28,14.73a1.63,1.63,0,0,1,0-1c.27-.13.42-.12.58,0,0,.18,0,.25,0,.33a4,4,0,0,1-.32.59A.61.61,0,0,1,75.28,14.73Z"/><path class="cls-7" d="M67.88,22a5.43,5.43,0,0,1-1,.2l0-.27A5.76,5.76,0,0,1,67.88,22Z"/><path class="cls-12" d="M74.82,18.74a3.19,3.19,0,0,1,.34.79,2.21,2.21,0,0,1-.56-.69C74.61,18.74,74.75,18.74,74.82,18.74Z"/><path class="cls-7" d="M68,22.73a2.46,2.46,0,0,1-.77.08A2.19,2.19,0,0,1,68,22.73Z"/><path class="cls-7" d="M67,22.8s-.1.06-.25.05C66.75,22.8,66.81,22.8,67,22.8Z"/><path class="cls-13" d="M70.72,5.57c0,.83,1.27,2-.69,2.26a17.13,17.13,0,0,1-1-2.42C69.63,5.46,70.13,5.5,70.72,5.57Z"/><path class="cls-9" d="M68.69,2.93c.06-.05.14,0,.22.14S68.79,3.05,68.69,2.93Z"/><path class="cls-29" d="M63.32,28.73l-.35,0h-1.2c.22-.56.47-1.12.64-1.7.05-.17-.13-.41-.25-.7-.06-.07.06-.1.12-.12s.34,0,.59,0a18,18,0,0,1,.4,1.89A2.45,2.45,0,0,1,63.32,28.73Z"/><path class="cls-36" d="M48,26.27c1.63-1,3,0,4.54.57.32,0,.55.12.73.05,2.3-.83,3.92.19,5.15,2.05-.66.22-1.58.2-1.69.49-.58,1.53-1.94,1.28-3,1.32-2.14.09-4.28-.11-6.42-.19l0-.6h6.69V29.4c-2.25,0-4.51,0-6.75-.12.26-1.09.48-2.05.71-3Z"/><path class="cls-37" d="M47.3,29.4h6.77V30H47.38l0,.6c2.14.08,4.28.28,6.42.19,1,0,2.41.21,3-1.32.11-.29,1-.27,1.71-.39a12.45,12.45,0,0,1,.3,3,4.66,4.66,0,0,1-1.45.58,14.13,14.13,0,0,0-2.95-.73c-1.56-.14-3.16,0-4.69-.24a13.69,13.69,0,0,1-3.51-1.48A8.47,8.47,0,0,1,47.3,29.4Z"/><path class="cls-29" d="M63,32.49c0,.06,0,.11,0,.24-.22.52-.45,1-.75,1.63-.15,1-.22,1.78-.38,2.55-.77-.51-.92-1.62-2-1.69,0-.13,0-.18,0-.24l1.84-2.4c.06-.09.06-.09.17-.09H63Z"/><path class="cls-29" d="M60.83,29.2a1.91,1.91,0,0,1,.93-.12,1.13,1.13,0,0,1,.34.87c-.06.55-.21,1.09-.33,1.75,0,.34,0,.56,0,.79h0l-1.09-.06A26.1,26.1,0,0,1,60.83,29.2Z"/><path class="cls-13" d="M59.75,35c.11.09.12.14,0,.32a7.49,7.49,0,0,1-1.22.9c-.15,0-.21,0-.27-.15-.4-.49-.79-.88-1.19-1.36,0-.15,0-.21,0-.29.9-.27,1.67-.58,1.78-1.59A22.44,22.44,0,0,0,59.75,35Z"/><path class="cls-35" d="M58.94,32.68c-.11,1.11-.88,1.42-1.8,1.59a5.77,5.77,0,0,1-1-1,8.33,8.33,0,0,1,1.22-.54c.44-.19.87-.39,1.4-.57A.72.72,0,0,1,58.94,32.68Z"/><path class="cls-6" d="M110.84,36.86c1.18,0,.9.92.89,1.59a7.5,7.5,0,0,1-.38,1.82,1.25,1.25,0,0,1-.61.35c-.13,0-.19,0-.24-.16Z"/><path class="cls-20" d="M110.83,36.79c-.1,1.23-.21,2.39-.4,3.69a.26.26,0,0,1-.32.1,1.22,1.22,0,0,1-.54-.41c.1-1.09.2-2,.3-3a7.12,7.12,0,0,1,.86-.58C110.83,36.61,110.83,36.73,110.83,36.79Z"/><path class="cls-22" d="M110.83,40.63l.49-.23a19.44,19.44,0,0,1,.39,2.31,2.09,2.09,0,0,1-1.13.58A23.59,23.59,0,0,1,110.83,40.63Z"/><path class="cls-9" d="M110.74,40.62c0,.86-.14,1.7-.26,2.67a2.77,2.77,0,0,1-.34.44,9.41,9.41,0,0,0-.59.94H109c-.1-.14-.1-.28,0-.58.17-1.06.23-2,.39-2.86a5.07,5.07,0,0,0,.76-.62l.23,0A1.73,1.73,0,0,1,110.74,40.62Z"/><path class="cls-22" d="M109.65,44.65a2.47,2.47,0,0,1,.45-.86A2.38,2.38,0,0,1,109.65,44.65Z"/><path class="cls-26" d="M22.68,42.46c0-.13,0-.26,0-.55v-.29a.35.35,0,0,1,.27.07,10.35,10.35,0,0,0,1.39.47c.36-.12.6-.23.95-.33a7.45,7.45,0,0,0,.91-.3,7.63,7.63,0,0,0,.88-.62l-.31,1.32L28,42V39.67a1.37,1.37,0,0,1,.58.14c.12,2.21.12,2.24,2.22,2.29,1,0,1.91-.09,3-.13.75.05,1.38.1,2.05.2a1,1,0,0,0,.37-.07,2.93,2.93,0,0,1,.58,0,8.57,8.57,0,0,1,1.81.2,15.16,15.16,0,0,1,.22,1.59,1.47,1.47,0,0,1-.34.77c-2.43,0-4.71,0-7.13.06l-1.89,0c-.07,0-.22,0-.22-.15v-.94c-1.22.37-2.37.79-3.55,1a28.31,28.31,0,0,1-3,.32.14.14,0,0,1-.16,0A23.43,23.43,0,0,1,22.68,42.46Z"/><path class="cls-33" d="M38.57,42.19A10.57,10.57,0,0,1,36.86,42c.29-.25.7-.33,1-.57s.24-.57.4-1c1-.78.82-1.23-.23-1.61,0-.21,0-.29.13-.36a8.48,8.48,0,0,0,.7-1.77c-.05-1.09-.14-2.06-.24-3.11l-1.72.17a14.42,14.42,0,0,1-.21,1.43c-.05,0-.15,0-.16-.14,0-.68,0-1.23,0-1.4.92-.65,2-1.05,2.06-1.54a38.62,38.62,0,0,0-.14-5.37c0-.09-.32-.16-.59-.3-.56,0-1,.07-1.61.11a4.61,4.61,0,0,1-1.08-.16,27.59,27.59,0,0,0-2.75-.53c-.27-.11-.54-.21-.92-.33-.11,0,0-.12,0-.18.68-.15,1.34-.25,2.13-.37l.17-1.2c.1.07.23.11.24.17.12,1.09.74,1.43,1.8,1.34a32.05,32.05,0,0,1,3.24,0c.25,1.91.3,3.81.48,5.69a29.91,29.91,0,0,0,.65,3,3.1,3.1,0,0,1,0,.7,1.87,1.87,0,0,1-.24.31c0-.05,0-.1,0-.15,0-.22-.11-.44-.16-.66l-.24,0c.15,1.42.31,2.83.47,4.37,0,1.16-.06,2.18-.1,3.21a.21.21,0,0,1-.1.19C39.24,41.41,38.86,41.32,38.57,42.19Z"/><path class="cls-11" d="M28.92,39.42a10.07,10.07,0,0,1,1.27.11,1.21,1.21,0,0,1,.66.27C31.28,41,32.09,41,33,40.73A13.41,13.41,0,0,0,33.68,42c-1,0-1.9.16-2.86.14-2.1-.05-2.1-.08-2.11-2.29A.46.46,0,0,1,28.92,39.42Z"/><path class="cls-35" d="M28.63,26.91l-.34,0a3.91,3.91,0,0,1,1.44-.77c.79-.13,1.62-.06,2.54-.13a13,13,0,0,1,2.77.5,2.27,2.27,0,0,1-.55.71,1.93,1.93,0,0,0-.33,0,1.77,1.77,0,0,1-.52.26V27.1a1.31,1.31,0,0,0-.43-.37c-.07.2-.14.41-.21.65,0,0,0,.11-.09.09a5.44,5.44,0,0,1-.57,0c-.57-.25-1.05-1.08-1.62-.06Z"/><path class="cls-14" d="M28,39.55c0,.86,0,1.6,0,2.45l-1.24.23.31-1.32a2.44,2.44,0,0,1-.88.52,1,1,0,0,1-.06-.59,7.49,7.49,0,0,1,.41-.63c.42-.65.78-1.21,1.14-1.85,0-.14,0-.2,0-.25C27.81,38.55,27.91,39,28,39.55Z"/><path class="cls-27" d="M27.7,38.44a20.18,20.18,0,0,1-1.18,1.7,1,1,0,0,1-.45-.25c-.65-.23-1.22-.38-1.8-.64,0-.42,0-.72,0-1a5.73,5.73,0,0,1,.84.05,2.2,2.2,0,0,0,.69-.09l1.22,0a.34.34,0,0,1,.25,0Z"/><path class="cls-9" d="M27.7,38.36c-.11,0-.21,0-.39-.18,0-.06.09-.07.29-.07S27.71,38.22,27.7,38.36Z"/><path class="cls-7" d="M74.92,8.25s0,.05-.1.11a5.68,5.68,0,0,0-.57.69s0,0-.07,0a1.14,1.14,0,0,0-.24.29h0L72.67,9.3a30.18,30.18,0,0,1,1.1,3.64,5.38,5.38,0,0,1-1.34.09l-2-4.74c.6,0,1-.08,1.61-.16a2,2,0,0,1,.48,0Z"/><path class="cls-6" d="M72.39,8.11l-.25,0a13.22,13.22,0,0,1,0-1.8,5.87,5.87,0,0,1,1.43-.65,5.26,5.26,0,0,0,1.26.25c1-.09,1,.39.7,1.29A30.37,30.37,0,0,1,72.39,8.11Z"/><path class="cls-8" d="M72.32,13.07c.52,0,.92,0,1.45,0,.89,0,1.67,0,2.55,0a3.38,3.38,0,0,1,.41-.09,11.94,11.94,0,0,1,2.13.22c.12.18.12.24.12.3a.68.68,0,0,1-.35.08H77.54c-.64,0-1.16.08-1.68.13l-.57,0c-1.12,0-2.12,0-3.26,0a.63.63,0,0,1-.27.11l-.08-.18A2.28,2.28,0,0,1,72.32,13.07Z"/><path class="cls-3" d="M50.55,47.8a7.75,7.75,0,0,1,1.69-.23c.14,0,.13.15.13.21A7.35,7.35,0,0,1,50.55,47.8Z"/><path class="cls-29" d="M43.89,29.37c1.17,1.07,1,2.08-.37,2.35a17.32,17.32,0,0,1-2.56.11c-.14-.13-.14-.26-.13-.48.72-.64,1.43-1.19,2.14-1.73.19.21.15.13.08.09a1.61,1.61,0,0,0-.29-.09.46.46,0,0,1,.16-.23C43.24,29.37,43.5,29.38,43.89,29.37Z"/><path class="cls-6" d="M40.19,34.66v-.49c.12-.12.24-.13.46-.15a.52.52,0,0,1,0,.55A1,1,0,0,1,40.19,34.66Z"/><path class="cls-6" d="M40.74,31.89s0,.08,0,.22-.1,0-.12-.09S40.68,32,40.74,31.89Z"/><path class="cls-33" d="M10.32,33.17c.49,0,1-.08,1.69-.08.82.33,1.4.63,2.08,1l-1.23,1.8,3-.24a1.51,1.51,0,0,1-.06.5,1,1,0,0,1-.4.4,4,4,0,0,1-.57.07c-.14.08-.2.17-.38.28a2.05,2.05,0,0,1-2.25-1.14c-.33-.51-1.09-.74-1.66-1.16a.55.55,0,0,1,0-.28A8,8,0,0,0,10.32,33.17Z"/><path class="cls-29" d="M15.83,35.5a23.23,23.23,0,0,1-3,.36l1.23-1.8c-.68-.34-1.26-.64-2-1a24.85,24.85,0,0,1,3.2.16,6.62,6.62,0,0,1,.5,1.18Z"/><path class="cls-9" d="M16.46,36.91a1.71,1.71,0,0,1,.07.77c-1.14.1-2.17.09-3.32.08-.18,0-.26,0-.24,0,.91-.31,1.73-.54,2.67-.77Z"/><path class="cls-35" d="M13.32,37.77h3.25c.15.12.16.25.17.49a2.23,2.23,0,0,1-.82.51c-.11,0-.12-.07-.14-.17a11.58,11.58,0,0,0-1.89-.15.48.48,0,0,1-.28-.05A3.66,3.66,0,0,1,13.32,37.77Z"/><path class="cls-2" d="M15.91,34.38a3.85,3.85,0,0,1-.45-1.13,4.4,4.4,0,0,1,0-.64A8.1,8.1,0,0,1,15.91,34.38Z"/><path class="cls-5" d="M16.43,36.82a1.07,1.07,0,0,1-.8,0,.6.6,0,0,1-.16-.33,1.81,1.81,0,0,1,.31-.29A1.84,1.84,0,0,1,16.43,36.82Z"/><path class="cls-3" d="M11,30a.21.21,0,0,1-.08-.2c.5-.46,1-.87,1.68-1.45.16.5.3.93.42,1.47C12.36,30.6,11.74,30.94,11,30Z"/><path class="cls-1" d="M2.51,47.79a5.7,5.7,0,0,1,1-.87,4,4,0,0,1-.1.77A2.56,2.56,0,0,1,2.51,47.79Z"/><path class="cls-22" d="M1,44.41a1.14,1.14,0,0,1,.38.55A1,1,0,0,1,1,44.41Z"/><path class="cls-11" d="M10.48,34.38a.92.92,0,0,1,0,.29c0,.22,0,.29-.18.36-.42.3-.94.57-1,.89-.12,1-.06,1.93-.16,2.85-.46-.49-.83-.91-1.2-1.33-.08-.63-.17-1.26-.27-2,0-.13,0-.13.09-.13h.26c0-.56,0-1.12,0-1.78a7.15,7.15,0,0,1,1.44-.7c.2,0,.27.1.33.32A10.49,10.49,0,0,0,10.48,34.38Z"/><path class="cls-13" d="M10.53,34.29a3.37,3.37,0,0,1-.66-1.07.4.4,0,0,1,.35-.06A3,3,0,0,1,10.53,34.29Z"/><path class="cls-17" d="M3,42.54l-.8-.08c-.36-.2-.61-.39-1-.57-.1,0-.11-.09-.11-.13.09-.43.16-.82.27-1.32a22.61,22.61,0,0,1,3.44-.11,3.08,3.08,0,0,1,1,1,7.3,7.3,0,0,1-1,1,1.16,1.16,0,0,1-.56-.18,2.29,2.29,0,0,0-.46.28C3.46,42.51,3.23,42.52,3,42.54Z"/><path class="cls-9" d="M79.06,13.41c-.08,0-.08-.08-.07-.24s.14-.11.21-.12S79.18,13.25,79.06,13.41Z"/><path class="cls-21" d="M47.32,29.28a14.13,14.13,0,0,1-1.23.94c-.16.1-.22.09-.28.08-.09-.73-.19-1.46-.27-2.33a18,18,0,0,1,2.38-1.69A28.38,28.38,0,0,1,47.32,29.28Z"/><path class="cls-9" d="M24.18,38.21a3.3,3.3,0,0,1,.09,1.17c0,1.08,0,1.93,0,2.78A10.9,10.9,0,0,1,23,41.7c.16-.73.37-1.38.57-2A6.9,6.9,0,0,1,24.18,38.21Z"/><path class="cls-30" d="M22.34,41.86a5.92,5.92,0,0,1-1.24-.15,2.13,2.13,0,0,1,1.25-.14A.69.69,0,0,1,22.34,41.86Z"/><path class="cls-9" d="M25.72,38.16a.71.71,0,0,1-.47.11A.82.82,0,0,1,25.72,38.16Z"/><path class="cls-23" d="M22.43,41.87c-.09,0-.05-.15,0-.22s.16-.07.23,0,.07.15.07.22S22.57,41.88,22.43,41.87Z"/><path class="cls-9" d="M72.53,8.11c.86-.26,1.86-.52,2.92-.84a2,2,0,0,1,.63.71,4.56,4.56,0,0,1-1,.24C74.17,8.2,73.42,8.16,72.53,8.11Z"/><path class="cls-22" d="M17,42.24l3.14.2c-.71.28-1.54.55-2.44,1a2.72,2.72,0,0,0,.68.84c-.32.12-.81.29-1.4.45-.23,0-.37,0-.5-.18a4.66,4.66,0,0,1,.08-1.1,1.56,1.56,0,0,0,.31-.42,6.21,6.21,0,0,1-1.08.38c-.43,0-.79.16-1.16.21a9.23,9.23,0,0,1-1.54.11c.26-.2.46-.33.68-.48a4.94,4.94,0,0,1-.89-.74l3.28-.27Z"/><path class="cls-30" d="M16.44,44.64a2.07,2.07,0,0,1,.59.16c1.38,0,2.57-.08,3.77-.17a.84.84,0,0,1,.48.17,3.17,3.17,0,0,1-1.4.45c-1.87.07-3.73.08-5.6.11l-1.57,0c-.36,0-.49,0-.62,0-1.25,0-2.49,0-3.88-.16a2.85,2.85,0,0,1,1.21-.43l4.83-.09C15,44.65,15.71,44.65,16.44,44.64Z"/><path class="cls-23" d="M14.38,45.43c1.77-.1,3.63-.11,5.5-.18a4.36,4.36,0,0,0,1.51-.44c.05-1,0-1.92,1.18-2.33,0,.81,0,1.65,0,2.61.11.26.11.4,0,.53H17.09C16.22,45.59,15.35,45.54,14.38,45.43Z"/><path class="cls-23" d="M20.81,44.51a20.24,20.24,0,0,1-3.68.3,5.77,5.77,0,0,1,1.21-.56,4.64,4.64,0,0,1-.7-.74,8,8,0,0,1,2.23,0C20.23,43.56,20.5,44.07,20.81,44.51Z"/><path class="cls-12" d="M75.87,13.76a4.13,4.13,0,0,1,1.68-.15.84.84,0,0,1,.17.44L76,14.1C75.89,14,75.88,13.94,75.87,13.76Z"/><path class="cls-20" d="M77.84,14.06a.63.63,0,0,1-.18-.44,1.94,1.94,0,0,1,.89,0,.46.46,0,0,1,.08.41A2.63,2.63,0,0,1,77.84,14.06Z"/><path class="cls-7" d="M16.14,42.07a15.15,15.15,0,0,1-3.26.32,2.77,2.77,0,0,1,.09-.91c0-.07,0-.22.06-.28.27-1,.47-1.85.66-2.74a.32.32,0,0,1,.2,0c.06.06.06.18.1.28a11,11,0,0,0,1.54.55C15.74,40.2,15.94,41.07,16.14,42.07Z"/><path class="cls-31" d="M15.56,39.27a4.27,4.27,0,0,1-1.44-.46,11.25,11.25,0,0,1,1.68-.11.84.84,0,0,0,0,.1A4.68,4.68,0,0,1,15.56,39.27Z"/><path class="cls-27" d="M69.12,24.39c.11,0,.14.13.11.29.1.64.23,1.14.38,1.75s0,.9,0,1.39,0,.87,0,1.25L70,30.53c-1.27-.1-2.49-.16-3.71-.31-.21,0-.33-.5-.57-.66-.47-.32-1-.56-1.62-.94a1.2,1.2,0,0,1-.18-.57l1.29-3.11L66,25a2.09,2.09,0,0,1,.75.71c0,.86,0,1.5-.06,2.24h2.2v-1.3l-1.86-1A23.57,23.57,0,0,1,69.12,24.39Z"/><path class="cls-14" d="M63.82,28.07a.87.87,0,0,1,.15.54c-.13.12-.28.12-.54.13s-.1-.27-.09-.5A.77.77,0,0,1,63.82,28.07Z"/><path class="cls-14" d="M61.78,31.58c.11-.54.26-1.08.32-1.63a1.58,1.58,0,0,0-.23-.87c-.1,0-.11-.18-.1-.25a4.35,4.35,0,0,1,1.13-.07A14.17,14.17,0,0,1,64,31.13a4.32,4.32,0,0,1-.94,1,.36.36,0,0,1-.36,0C62.32,31.91,62.05,31.75,61.78,31.58Z"/><path class="cls-9" d="M74.36,9a1.49,1.49,0,0,1,.45-.65A1.53,1.53,0,0,1,74.36,9Z"/><path class="cls-9" d="M74,9.33c0-.05,0-.14.17-.25C74.22,9.15,74.16,9.23,74,9.33Z"/><path class="cls-28" d="M66,41.52c.12.67.16,1.1-.81,1.16a13.7,13.7,0,0,0-2.67,1c-.21-1.48-.34-2.88-.47-4.27a13.64,13.64,0,0,1,1.32-.55,2.92,2.92,0,0,1,1.54-.27c.29.08.43.78.57,1.23S65.77,40.91,66,41.52Z"/><path class="cls-1" d="M62,39.39a37.79,37.79,0,0,1,.46,4.26c-.13.24-.23.39-.41.7a2.42,2.42,0,0,1-.88.33c-.31-1.18-1-2.35,0-3.64A11.15,11.15,0,0,1,62,39.39Z"/><path class="cls-14" d="M62,36.92c.06-.78.13-1.56.27-2.44,1.43.78.71,2,.53,3.07s-1.18,1.08-2.18.93c-.11,0-.11,0-.07-.14.11-.28.18-.48.28-.74A10.33,10.33,0,0,1,62,36.92Z"/><path class="cls-13" d="M107.56,36.86a33.54,33.54,0,0,1-2.13,3V38.39c-.77-.59-1.41-1.09-2.08-1.69A33.83,33.83,0,0,1,107.56,36.86Z"/><path class="cls-7" d="M109.75,37.19a15.43,15.43,0,0,1-.27,3,5.45,5.45,0,0,1-.9.72l-.23.08a3.1,3.1,0,0,1,.21-3.71A5.71,5.71,0,0,1,109.75,37.19Z"/><path class="cls-13" d="M102.85,36.61a8.18,8.18,0,0,1-1.56.87,2,2,0,0,1-.44-.8A10.66,10.66,0,0,1,102.85,36.61Z"/><path class="cls-13" d="M100.05,36.6a4,4,0,0,1-1.09.57A3.88,3.88,0,0,1,100.05,36.6Z"/><path class="cls-16" d="M64.57,31.87,64.5,32s0-.08,0-.1Z"/><path class="cls-26" d="M62.72,32.19h.22c.07,0,.07.16.07.24s-.12.07-.25,0A.31.31,0,0,1,62.72,32.19Z"/><path class="cls-17" d="M95.11,42.94a6.71,6.71,0,0,1-.56,1.37,2.32,2.32,0,0,1-.58-.65c-.48.43-.75.85-1.09.94a7.39,7.39,0,0,1-1.85.08,3,3,0,0,1,.22-1.29,2.39,2.39,0,0,1,.62-.36,7.94,7.94,0,0,0,.85,0l1.52,0a2.14,2.14,0,0,0,.59-.11l.28,0M92.52,44l0-.09S92.46,43.94,92.52,44Z"/><path class="cls-30" d="M88,43.72c.26-2.22,2.11-1.82,3.65-2.14.68.1,1.22.2,2.14.38-.43.28-.72.46-1.17.73a3.06,3.06,0,0,1-.85.11s0,0,0-.13a25,25,0,0,0-2.95-.29l-.17.53A4.23,4.23,0,0,1,89.22,44a1.07,1.07,0,0,1-.44.1A6.58,6.58,0,0,1,88,43.72Z"/><path class="cls-20" d="M91.76,42.81l.79,0c.11,0,.15.12.16.19a1.67,1.67,0,0,1-.84,0A.23.23,0,0,1,91.76,42.81Z"/><path class="cls-20" d="M94.78,42.87a.65.65,0,0,1-.41.13C94.42,42.93,94.57,42.89,94.78,42.87Z"/><path class="cls-14" d="M93.32,40.93l.3.15a.79.79,0,0,1-.26-.1Z"/><path class="cls-29" d="M87.91,43.66c.3.19.53.32.87.56a1.21,1.21,0,0,1-.26.86,16.31,16.31,0,0,1-1.41-1l0-.06C87.14,43.56,87.09,42.82,87.91,43.66Z"/><path class="cls-28" d="M69.6,26.31a12.56,12.56,0,0,1-.36-1.57c1.93-.3,3.82-.5,5.9-.63,1.56,0,2.93-.09,4.53-.19l-.92-.3.06-.22c.88.22,1.75.45,2.66.77a5,5,0,0,0,1.23-.06,1.21,1.21,0,0,1,.54.08,5.3,5.3,0,0,0,1.33-.13h.82a5,5,0,0,1,.75.9l-2.61,1.15A1.85,1.85,0,0,1,82.7,26a.91.91,0,0,0-.45,0l-1.08.33c-.27-1.41-1.23-1.88-3.45-1.64-1.19.13-1.61.74-1.55,2,0,.75-.3,1.47.17,2.24.09.15-.65.81-1.08,1.3-1,.06-1.93,0-2.86.07s-1.63,0-1.8-1.21a3.08,3.08,0,0,1,.35-.94c.3-.1.57-.15.63-.28C72.14,26.53,71.63,26.13,69.6,26.31Z"/><path class="cls-14" d="M70.83,28.17a4.91,4.91,0,0,1-.24.83,3.78,3.78,0,0,1-.91.07,2.11,2.11,0,0,1,0-1.24A3.7,3.7,0,0,1,70.83,28.17Z"/><path class="cls-31" d="M84.93,27.56c-1.56.17-.63-.84-1-1.44h2.41C86.26,27,86.81,28.23,84.93,27.56Z"/><path class="cls-31" d="M82.71,26c.23,0,.46.1.79.2a3,3,0,0,1-.08,1.35,7.14,7.14,0,0,1-1.66.24,3,3,0,0,1-.37-.25,10,10,0,0,1-.2-1.14,2.92,2.92,0,0,1,1.14-.38A2,2,0,0,0,82.71,26Z"/><path class="cls-14" d="M81.76,27.94a9.66,9.66,0,0,1,1.67-.25,3.76,3.76,0,0,1,.5,1.25C83.31,28.51,81.87,29.71,81.76,27.94Z"/><path class="cls-29" d="M79.6,27.63a2,2,0,0,1-.52.49,2.27,2.27,0,0,1-.68,0c-.38-.15-.64-.27-.87-.38l1.38-1.52A15.94,15.94,0,0,1,79.6,27.63Z"/><path class="cls-11" d="M87.05,44.2a14.94,14.94,0,0,1,1.52.93,2.73,2.73,0,0,0,.79-.07.64.64,0,0,1,.36,0c.52.09,1,.13,1.51.19l2.41.35c-1.78.11-3.55.22-5.58.33a4.17,4.17,0,0,0-1,.53,20.07,20.07,0,0,1-2.57,0c-.39,0-.75-.43-1.13-.79C84.54,45.17,85.77,44.73,87.05,44.2Z"/><path class="cls-17" d="M108.31,41.07c.09-.11.14-.13.37-.15a1.93,1.93,0,0,1,.65.33A24.56,24.56,0,0,1,109,44c-.72.06-1.33.06-2.16.06.75-1-1.72-1.73.05-2.69.17-.1.6.28.95.46Z"/><path class="cls-7" d="M93.76,45.62a22.16,22.16,0,0,1-2.52-.44,1,1,0,0,1-.11-.48,7.85,7.85,0,0,0,1.75-.1c.34-.09.61-.51,1.09-.94a4.39,4.39,0,0,0,.58.75,3.9,3.9,0,0,1,.57.78C94.71,45.33,94.3,45.48,93.76,45.62Z"/><path class="cls-7" d="M87.14,46.5a2.23,2.23,0,0,1,.78-.55A2.3,2.3,0,0,1,87.14,46.5Z"/><path class="cls-28" d="M61.06,44.76c.34-.14.6-.19.94-.32,1.78.44.7,1.38.4,2.32C61.21,46.67,60.8,46,61.06,44.76Z"/><path class="cls-17" d="M67,25.67c.6.3,1.14.6,1.92,1V28h-2.2c0-.74.08-1.38.11-2.16A.15.15,0,0,1,67,25.67Z"/><path class="cls-30" d="M56.1,33.41a8.32,8.32,0,0,1,.95.88,1.18,1.18,0,0,1,0,.43.46.46,0,0,1-.37.33c-.25.19-.41.38-.63.57-.08,0-.22,0-.28-.07a6,6,0,0,0-1.18.65.2.2,0,0,1-.18.08,13.69,13.69,0,0,1-1.44.49c-.8-.53-1.22-2.1-2.58-.83a2.52,2.52,0,0,0-.47.54,2.65,2.65,0,0,1-.92-.1.71.71,0,0,1,0-.55,6.82,6.82,0,0,1,1.3-.83,2.68,2.68,0,0,0,.84-.72c-.09-.33-.17-.57-.27-.92a.84.84,0,0,1,.08-.54c.39,0,.88-.13.92,0,.54,1.36,1.82.55,2.12.3C55,32.21,55.49,32.74,56.1,33.41Z"/><path class="cls-1" d="M50.82,39.68c.56,1.87.31,2.45-1.69,3.94,0,.1,0,.23.11.27.49.3,1,.58,1.48.86-.54.29-1.07.61-1.64.86s-1,.32-1.77.59a13.41,13.41,0,0,1-.21-2.71c.67-.68,1.15-1.28,1.67-1.83S50.14,40.34,50.82,39.68Z"/><path class="cls-34" d="M50.18,35l-1.3.83-.9.45-1,.17c-.8.16-1.31,0-1.25-1A32.15,32.15,0,0,1,46,32a1.62,1.62,0,0,1,.43.73l.69-.82a6.37,6.37,0,0,0,.66,1.19c.54.34,1.11,1,1.38.91C50.42,33.55,50.09,34.45,50.18,35Z"/><path class="cls-26" d="M50.82,39.58c-.68.76-1.39,1.4-2,2.08s-1,1.15-1.6,1.75c-.24-2.1-.37-4.23-.52-6.66a4.83,4.83,0,0,1,1.61.71,4.79,4.79,0,0,1-1.11,1.09l3.67.51Z"/><path class="cls-38" d="M47.69,33.09l-.55-1.17-.69.82c-.12-.31-.2-.53-.35-.84a10.59,10.59,0,0,1-.31-1.47c.08-.12.14-.11.28-.11a23.13,23.13,0,0,0,3.62,1.37c1.53.27,3.13.1,4.69.24a14.13,14.13,0,0,1,2.95.73,13,13,0,0,1-1.19.65c-.65-.57-1.16-1.1-2.16-.24-.3.25-1.58,1.06-2.12-.3,0-.08-.53,0-1,0C49.65,32.88,48.67,33,47.69,33.09Z"/><path class="cls-27" d="M53,36.87a8.5,8.5,0,0,1,1.44-.55l.25,0-.06-.19a2.63,2.63,0,0,1,1.12-.51c0,.81-.12,1.42-.19,2.08a11.83,11.83,0,0,1,2.12.2c.1.54.21,1,.32,1.42l-.14.84a6.53,6.53,0,0,1-1-.57,6.64,6.64,0,0,1-.66-.84l-1.43,1.14a4.54,4.54,0,0,1-.16-1.14,1.87,1.87,0,0,0,0-.54l-.38.18a20.31,20.31,0,0,1-2.69,0c-.11-.13-.12-.28-.05-.35a2.44,2.44,0,0,1,.38-.61A7.26,7.26,0,0,0,53,36.87Z"/><path class="cls-3" d="M40,41.88a14.7,14.7,0,0,1,.07-3.23,2.1,2.1,0,0,1,.75-.25,2.18,2.18,0,0,0,.65.35c1.45.21,2,1.08,1.52,2.44-.09.27-.56.49-.88.55A14.82,14.82,0,0,1,40,41.88Z"/><path class="cls-26" d="M58.09,39.3a3.52,3.52,0,0,1-.34-1.42l.55-1.76.37.11c.83.53,1.48,1,2.12,1.44-.07.19-.14.39-.25.67A2,2,0,0,0,58.09,39.3Z"/><path class="cls-35" d="M43.58,33.44a10.17,10.17,0,0,1,.57,1.86c-.54.08-1.27.41-1.58.18s-.61-1.06-1-1.92Z"/><path class="cls-14" d="M51.44,38.13s0,.15,0,.23a2.76,2.76,0,0,1-.55.65c-1.24-.11-2.39-.27-3.75-.46a13.28,13.28,0,0,0,1.15-1,6.15,6.15,0,0,1,1.78,0,5.29,5.29,0,0,1,.75.26A3.65,3.65,0,0,0,51.44,38.13Z"/><path class="cls-30" d="M40.84,38.26a1.35,1.35,0,0,1-.76.26c-.26-1.4-.42-2.81-.57-4.23l.24,0c0,.22.11.44.16.66,0,.05,0,.1,0,.15a1.87,1.87,0,0,0,.24-.31.94.94,0,0,1,.52-.07C40.8,35.83,40.82,37,40.84,38.26Z"/><path class="cls-31" d="M38.64,44.68a4.34,4.34,0,0,1,.27-.79,8.79,8.79,0,0,1,.9-.74c.88,1.86,2.63,1,4,1.41a2.93,2.93,0,0,1-1.19.17l-3.08.06a1.67,1.67,0,0,0-.33,0,.56.56,0,0,1-.28,0Z"/><path class="cls-34" d="M39.79,43.07a4,4,0,0,1-.86.7,10,10,0,0,1-.32-1.45c.25-1,.63-.91,1.15-.17A4,4,0,0,1,39.79,43.07Z"/><path class="cls-1" d="M57.37,44.76a3.87,3.87,0,0,1,.54.5l-.45.21A2,2,0,0,1,57.37,44.76Z"/><path class="cls-31" d="M50.76,37.74a2.89,2.89,0,0,1-.55-.18,2.42,2.42,0,0,1,0-.88.23.23,0,0,1,.24-.12.13.13,0,0,1,.1.13C50.66,37.11,50.71,37.42,50.76,37.74Z"/><path class="cls-17" d="M48,36.37a1.85,1.85,0,0,1,.81-.45c.1.12.08.24,0,.44A1.48,1.48,0,0,1,48,36.37Z"/><path class="cls-26" d="M54.29,38.5a.76.76,0,0,1,.34-.24,1.1,1.1,0,0,1,0,.44C54.48,38.7,54.4,38.64,54.29,38.5Z"/><path class="cls-17" d="M50.47,36.54l-.23,0A.51.51,0,0,1,50,36.5a.73.73,0,0,1,.43-.46A.93.93,0,0,1,50.47,36.54Z"/><path class="cls-22" d="M17.07,45.74a28.72,28.72,0,0,1,4.26,0c.69.72,1.09.66,1.37-.1,0-.13,0-.27,0-.49s0-.13.15-.11c.35.12.59.22.82.32,0,1.21-.64,1.62-1.77,1.54-.66-.05-1.33,0-2.14,0-.51-.35-.77-1.44-1.39-.1-.6,0-1.75.52-1.26-1m2.87.33.81.15,0-.25A2.78,2.78,0,0,0,19.94,46.07Z"/><path class="cls-31" d="M23.76,45.32a5.23,5.23,0,0,1-.92-.31c.9-.14,1.9-.14,2.86-.35,1.18-.25,2.33-.67,3.55-1a8.51,8.51,0,0,1-.06,1,1.11,1.11,0,0,0-.24.35Z"/><path class="cls-14" d="M30.83,47.5,30,47a8,8,0,0,1-.66.51,4.57,4.57,0,0,1-.27-1.75,3.82,3.82,0,0,1,1.21-.14c.49,0,.84,0,1.2,0,0,0,0,0,0,.14-.21.67-.42,1.23-.62,1.78Z"/><path class="cls-34" d="M30.14,45.57l-1.06,0c-.12-.14-.11-.29-.12-.55a.36.36,0,0,1,.23-.36.31.31,0,0,1,.3.1C29.76,45.13,30,45.35,30.14,45.57Z"/><path class="cls-34" d="M38.49,44.68a1.91,1.91,0,0,1,.52.1.33.33,0,0,1,.19.1l-2.57.54-3.94.13-1.24.06s0,0,0-.13c0-.32,0-.52,0-.72Z"/><path class="cls-16" d="M31.45,45.72a3.11,3.11,0,0,1,1.11-.15,6,6,0,0,1,.37,1.4l-2,.51A12.81,12.81,0,0,1,31.45,45.72Z"/><path class="cls-16" d="M33.86,46.43a.51.51,0,0,1,.18-.25l.15.29A1.12,1.12,0,0,1,33.86,46.43Z"/><path class="cls-1" d="M39.62,44.89a24.49,24.49,0,0,1,2.93-.13c-1,1.22-1,1.22-.74,2.7-1,.08-1.52-.12-1.49-1.21C40.34,45.83,39.89,45.4,39.62,44.89Z"/><path class="cls-1" d="M39.19,44.89s0-.07-.06-.08,0,0,0,.06S39.19,44.89,39.19,44.89Z"/><path class="cls-24" d="M5.87,41.27,5,40.3c0-.59.12-1.11.21-1.74a5.79,5.79,0,0,1,1.73-.63,1.06,1.06,0,0,1-.24.55c-.11.54-.17,1-.23,1.58a1.43,1.43,0,0,0,0,.25l-.06,0a.35.35,0,0,0-.2.34A2.94,2.94,0,0,1,5.87,41.27Z"/><path class="cls-6" d="M6.72,38.41c.08-.14.17-.28.29-.5a2.66,2.66,0,0,1,.62-.36c.07.1.06.22,0,.5a4.76,4.76,0,0,0-.24.65H7.26c-.08,0-.22,0-.29,0A1,1,0,0,1,6.72,38.41Z"/><path class="cls-13" d="M8,35.27s-.08,0-.22,0S7.88,35.25,8,35.27Z"/><path class="cls-14" d="M81.44,24.08l-2.63-.68-.06.22.92.3c-1.6.1-3,.18-4.42.19-.61-.53-1.93-.89-.24-1.63.11-.05,0-.7-.1-1.18a2.38,2.38,0,0,1,1.08,0c.26.13.35.15.45.14l.24.06c0,.93.36,1.33,1.31,1.29s2.15,0,3.37,0a2.73,2.73,0,0,1,0,.93A.9.9,0,0,1,81.44,24.08Z"/><path class="cls-20" d="M76.39,21.44s-.14,0-.28-.09C76.16,21.3,76.25,21.33,76.39,21.44Z"/><path class="cls-22" d="M81.47,24.17a.82.82,0,0,1,0-.31,5,5,0,0,1,1.14.22A3.07,3.07,0,0,1,81.47,24.17Z"/><path class="cls-22" d="M84.46,24.06a4,4,0,0,1-1.12.14c.1-.12.24-.14.47-.17S84.2,24,84.46,24.06Z"/><path class="cls-22" d="M84.19,23.43q0,.08-.18.27S84.06,23.57,84.19,23.43Z"/><path class="cls-22" d="M9.28,44.75a7,7,0,0,0-1.21.43c-.06.1-.13.11-.42.13H6.14L4,44.89l0-.54,1-.46c-.63-.5-2,.48-2.07-1.23a1.87,1.87,0,0,1,.87-.19c.3,0,.37-.08.39-.2l.63.15c.8.08,1.42,0,2,.12A4.1,4.1,0,0,0,10.48,42c.56.23,1.08.35,1.59.58,0,.22,0,.36,0,.6-.18,1-.56,1.21-1.4.74S9.26,43.66,9.28,44.75Z"/><path class="cls-23" d="M6.22,45.39a7.28,7.28,0,0,1,1.33-.07A7.22,7.22,0,0,1,6.22,45.39Z"/><path class="cls-22" d="M2.07,43.12l.44.27-.15.17a1.67,1.67,0,0,1-.27-.36Z"/><path class="cls-22" d="M14.33,46.65a1.74,1.74,0,0,1,.48,0v.17A1.35,1.35,0,0,1,14.33,46.65Z"/><path class="cls-22" d="M12.49,46.61a.46.46,0,0,1,.17.17c-.05,0-.12,0-.14,0A.2.2,0,0,1,12.49,46.61Z"/><path class="cls-23" d="M12.14,45.4a.71.71,0,0,1,.44-.06A.73.73,0,0,1,12.14,45.4Z"/><path class="cls-11" d="M6.17,47.67s-.08,0-.08,0S6.16,47.65,6.17,47.67Z"/><path class="cls-9" d="M71.76,13.87c0-.13.12-.14.18-.14.54.59,1.21,1,.94,2.06-.12.45.45,1.09.71,1.65C72.64,17.84,72.24,17.17,71.76,13.87Z"/><path class="cls-6" d="M73.32,19.06a3.45,3.45,0,0,1-.14-.34,1,1,0,0,1,.15.26A.28.28,0,0,1,73.32,19.06Z"/><path class="cls-6" d="M71.49,22.5c-.64,0-1.22-.05-1.8-.1v-.22h1.93C71.69,22.27,71.62,22.36,71.49,22.5Z"/><path class="cls-18" d="M76.15,19.27a5.65,5.65,0,0,1-.91-.49A4.17,4.17,0,0,1,76.15,19.27Z"/><path class="cls-30" d="M60.82,37.6c-.67-.39-1.32-.84-2.07-1.36a4.54,4.54,0,0,1,1-.89c1.17-.06,1.32,1,2.09,1.56C61.61,37.12,61.22,37.32,60.82,37.6Z"/><path class="cls-7" d="M62.65,32.13c.07.06,0,.21,0,.28a2.41,2.41,0,0,1-.8.08,1.6,1.6,0,0,1-.1-.79A2.45,2.45,0,0,1,62.65,32.13Z"/><path class="cls-21" d="M58.3,36a17.75,17.75,0,0,1-.55,1.75,20.23,20.23,0,0,1-2.18,0c.07-.66.14-1.27.24-2,0-.12.18-.12.35-.14a2.75,2.75,0,0,0,.65-.57.7.7,0,0,0,.27-.24A7.81,7.81,0,0,1,58.3,36Z"/><path class="cls-6" d="M109.43,41.24a7.17,7.17,0,0,1-.67-.35,2.12,2.12,0,0,1,.72-.57,3.1,3.1,0,0,1,.63.26A2,2,0,0,1,109.43,41.24Z"/><path class="cls-12" d="M33.8,42a3,3,0,0,1-.72-1.35,37.8,37.8,0,0,1,5.1,0c-.1.3-.13.69-.34.87a6.88,6.88,0,0,1-1.12.55,1.21,1.21,0,0,1-.58.08,1.84,1.84,0,0,0-.32,0Z"/><path class="cls-13" d="M24.35,42.16a25.41,25.41,0,0,1-.08-2.67,4,4,0,0,1,1.7.45c-.27.61-.51,1.09-.76,1.65,0,.07,0,.22,0,.22A6.69,6.69,0,0,1,24.35,42.16Z"/><path class="cls-29" d="M31.36,44.74a1.2,1.2,0,0,1,.11.72,3.83,3.83,0,0,1-1.19.13,2.62,2.62,0,0,1-.72-.77A9.23,9.23,0,0,1,31.36,44.74Z"/><path class="cls-30" d="M25.3,41.83c-.1,0-.09-.17,0-.29a7.36,7.36,0,0,1,.82-.62c0,.14,0,.28,0,.52A1.74,1.74,0,0,1,25.3,41.83Z"/><path class="cls-33" d="M35.85,42.17c0-.06.07-.07.2-.07S36,42.18,35.85,42.17Z"/><path class="cls-31" d="M38.82,36.9a4.85,4.85,0,0,1-.8,1.61c-1.43.06-2.62.15-3.86.26a.19.19,0,0,1-.22-.11c-.87-.16-1.67-.22-2.45-.39.14-.8-.38-1.76.87-1.86a16.76,16.76,0,0,0,2,.21,8.74,8.74,0,0,0,4,.12A3.67,3.67,0,0,0,38.82,36.9Z"/><path class="cls-2" d="M34,38.78a.49.49,0,0,1,.22.1C35.57,39,36.79,39,38,39c1.06.26,1.26.71.24,1.49-1.74,0-3.42,0-5.17,0-1,.46-1.79.51-2.14-.73a2.71,2.71,0,0,1,.69-.7Z"/><path class="cls-11" d="M38.84,36.76c-.16.1-.29.06-.48-.13-.56-.45-1.07-.74-1.6-1.12,0-.15,0-.2,0-.26l.16-1.43,1.72-.17C38.7,34.7,38.79,35.67,38.84,36.76Z"/><path class="cls-8" d="M38,38.89a20.24,20.24,0,0,1-3.73,0,27.82,27.82,0,0,1,3.62-.37C38,38.6,38,38.68,38,38.89Z"/><path class="cls-12" d="M36.22,26.61c0,.19-.15.36-.47.56H34.57a4,4,0,0,1,.54-.61A10.48,10.48,0,0,1,36.22,26.61Z"/><path class="cls-30" d="M36.67,35.25c.06.06.07.11.06.34a.88.88,0,0,1-.64,0,3.2,3.2,0,0,1,.35-.3A.34.34,0,0,1,36.67,35.25Z"/><path class="cls-13" d="M31.48,35a.47.47,0,0,1,.22.13,6.71,6.71,0,0,1,.72.57,1.53,1.53,0,0,1,0,.52l-.11.1c-1.21.2-.69,1.16-.91,2a1.87,1.87,0,0,0,.07.77,4.74,4.74,0,0,1-.55.57,1.66,1.66,0,0,1-.66-.18c.07-1.47.59-2.94-.74-4.32a13.65,13.65,0,0,0,1.65-.07A1,1,0,0,1,31.48,35Z"/><path class="cls-4" d="M31.45,34.92c0,.07-.12.09-.19.11s-.1-.14-.11-.22S31.33,34.81,31.45,34.92Z"/><path class="cls-12" d="M31.81,29.72c-.31-.68-.62-1.35-1-2.13.44-1.17.92-.34,1.53,0a1.2,1.2,0,0,1,.35.65c.37.19.79.32,1.24.54a1.14,1.14,0,0,0,.26.59c.2,0,.27,0,.35.09s0,.19-.09.23a2.44,2.44,0,0,1-.57.22c-.15-.08-.23-.05-.38.1C32.9,29.94,32.36,29.83,31.81,29.72Z"/><path class="cls-34" d="M33.64,27.21c0,.06,0,.12,0,.36s0,.45-.12.58a.87.87,0,0,1-.61-.09c0-.27.06-.42.09-.57a.19.19,0,0,1,.09-.16A1.52,1.52,0,0,1,33.64,27.21Z"/><path class="cls-6" d="M33.64,27.1a1.22,1.22,0,0,1-.54.19,1.23,1.23,0,0,1,.11-.56A1.31,1.31,0,0,1,33.64,27.1Z"/><path class="cls-20" d="M33.65,28.15c0-.13,0-.26,0-.49a.68.68,0,0,1,.53-.35.64.64,0,0,1,.17.31.22.22,0,0,1-.12.2,5.42,5.42,0,0,1-.44.37Z"/><path class="cls-6" d="M32.91,27.47a.86.86,0,0,1,0,.59c0,.12-.09.12-.09.12l-.33-.56C32.56,27.51,32.69,27.48,32.91,27.47Z"/><path class="cls-12" d="M34.34,27.57a2.79,2.79,0,0,1-.08-.29c0-.09.1-.1.23-.1s.08,0,0,.07A1.68,1.68,0,0,1,34.34,27.57Z"/><path class="cls-35" d="M26.15,40.84a7.93,7.93,0,0,1-.86.63A7.57,7.57,0,0,1,26.05,40a.54.54,0,0,1,.41.2A2.76,2.76,0,0,1,26.15,40.84Z"/><path class="cls-3" d="M10.44,35a2.14,2.14,0,0,1,.05-.29,3.72,3.72,0,0,1,1.68,1,2,2,0,0,0,2.31,1.11c.28-.08.35-.15.4-.23l.49-.09c.11.06.12.14.14.32-.81.34-1.63.57-2.64.9A20.52,20.52,0,0,1,11,39a2.54,2.54,0,0,1-.4-3C10.74,35.76,10.51,35.35,10.44,35Z"/><path class="cls-17" d="M14.8,36.59c0,.1,0,.17-.19.24S14.66,36.67,14.8,36.59Z"/><path class="cls-13" d="M15.78,38.6a7.51,7.51,0,0,1-1.7.1c-.13,0-.13-.13-.13-.19A7.05,7.05,0,0,1,15.78,38.6Z"/><path class="cls-29" d="M11,39a.73.73,0,0,1,0,.63,8.44,8.44,0,0,1-1.73,0c0-.19,0-.39,0-.69a24.57,24.57,0,0,1,.06-3c0-.32.56-.59,1-.89.2.32.43.73.31.95A2.54,2.54,0,0,0,11,39Z"/><path class="cls-11" d="M9.27,39.72a10.34,10.34,0,0,1,1.77,0,4.3,4.3,0,0,1,.37,1.54,3.74,3.74,0,0,1-1,.7,3.74,3.74,0,0,1-3.55.61A17.75,17.75,0,0,0,5,42.44a4.88,4.88,0,0,1,.77-1.09,4.73,4.73,0,0,0,.45-.71,2.59,2.59,0,0,0,.2-.33h.11a.74.74,0,0,1,.51.11c0,.33,0,.54,0,.76.44,1.24,1.29,1.17,2.27.77C9.32,41.19,9.28,40.51,9.27,39.72Z"/><path class="cls-11" d="M4.26,42.19c0,.2-.08.26-.27.26A.41.41,0,0,1,4.26,42.19Z"/><path class="cls-23" d="M9.42,44.76c-.16-1.1.47-1.23,1.24-.81s1.22.22,1.49-.69a3.55,3.55,0,0,1,.85.51c.53-.06,1.06-.1,1.59-.18.37-.05.73-.17,1.27-.21a2.51,2.51,0,0,0,.58.06v1.08a14.66,14.66,0,0,1-2.19.15Z"/><path class="cls-16" d="M13.05,43.7a4.27,4.27,0,0,1-.9-.55,1.28,1.28,0,0,1-.07-.63,1.35,1.35,0,0,1,.13-.61c.31-.16.54-.26.76-.36-.06.25-.13.5-.23.84a5.88,5.88,0,0,0,1,.83C13.51,43.37,13.31,43.5,13.05,43.7Z"/><path class="cls-16" d="M16.52,43.42a4,4,0,0,1-.6,0,7.88,7.88,0,0,1,.91-.43A1.56,1.56,0,0,1,16.52,43.42Z"/><path class="cls-1" d="M22.57,45.62c-.15.76-.55.82-1.1.1A3.58,3.58,0,0,1,22.57,45.62Z"/><path class="cls-31" d="M13,41.48a2.29,2.29,0,0,1-.83.38c-.21-.09-.28-.18-.29-.31a.62.62,0,0,0,.23-.29s0,0,.09,0h.51a.93.93,0,0,0,.2,0C12.94,41.26,13,41.41,13,41.48Z"/><path class="cls-31" d="M71,28.16c-.45-.13-.78-.28-1.21-.43a4.73,4.73,0,0,1-.13-1.3c2-.3,2.53.1,2,1.45C71.52,28,71.25,28.06,71,28.16Z"/><path class="cls-20" d="M91,44.68a.63.63,0,0,1,.08.48A3.94,3.94,0,0,1,89.67,45a.46.46,0,0,0-.4,0,2.55,2.55,0,0,1-.59.06,5.93,5.93,0,0,1,.2-.9c.07-.12.15-.15.43-.25.73-.35,1.26-.63,1.8-.83a1.28,1.28,0,0,1,0,.25A5.42,5.42,0,0,0,91,44.68Z"/><path class="cls-30" d="M91.25,43.39c-.1,0-.11-.09-.07-.29a1.23,1.23,0,0,1,.55-.32l0,0a.58.58,0,0,1,0,.15A2.49,2.49,0,0,1,91.25,43.39Z"/><path class="cls-7" d="M92.49,44s.06-.06.06-.06S92.52,44,92.49,44Z"/><path class="cls-29" d="M91.71,42.67a1.66,1.66,0,0,1-.55.34c-.59.35-1.12.63-1.74.94a7.88,7.88,0,0,1-.83-1l.17-.53A25,25,0,0,1,91.71,42.67Z"/><path class="cls-22" d="M82.7,26c0,.06-.11.07-.25,0C82.47,26,82.58,26,82.7,26Z"/><path class="cls-29" d="M89.36,45.06s.08-.08.22-.08C89.56,45,89.5,45,89.36,45.06Z"/><path class="cls-31" d="M47.8,33.11q1.31-.2,2.94-.3a1.09,1.09,0,0,1,.1.66,4.66,4.66,0,0,0,.29.91,5.09,5.09,0,0,1-.84.62c-.2-.55.13-1.45-1.11-1C48.91,34.12,48.34,33.45,47.8,33.11Z"/><path class="cls-34" d="M50.49,36.56c0-.16,0-.29,0-.52,1.26-1.37,1.68.2,2.48.73,0,.1,0,.1-.11.1-.49,0-.85,0-1.3,0s-.7-.21-1-.31Z"/><path class="cls-13" d="M56.7,35.05a1.24,1.24,0,0,1-.47.55A1.33,1.33,0,0,1,56.7,35.05Z"/><path class="cls-20" d="M51.13,34.28a2.19,2.19,0,0,1-.28-.71A2.16,2.16,0,0,1,51.13,34.28Z"/><path class="cls-26" d="M50.59,36.69a2.42,2.42,0,0,1,1,.3,1.16,1.16,0,0,1,.17.45,3.77,3.77,0,0,1-.27.62,1.24,1.24,0,0,1-.68-.25A7.94,7.94,0,0,1,50.59,36.69Z"/><path class="cls-30" d="M51.89,37.45A.69.69,0,0,1,51.7,37a4.37,4.37,0,0,1,1.18-.13A3,3,0,0,1,51.89,37.45Z"/><path class="cls-30" d="M54.61,36.2a.35.35,0,0,1,.09.17.21.21,0,0,1-.13,0S54.59,36.23,54.61,36.2Z"/><path class="cls-1" d="M20,46a4.41,4.41,0,0,1,.78-.05l0,.25A3.16,3.16,0,0,1,20,46Z"/><path class="cls-17" d="M7.2,41.12a1.15,1.15,0,0,1-.08-.77c.1-.32.14-.48.21-.74s0-.39,0-.63a1.87,1.87,0,0,0,0-.28l.08,0,.22,0A21.46,21.46,0,0,1,7.2,41.12Z"/><path class="cls-35" d="M7.65,38.65c0,.11-.17.09-.24.07a1,1,0,0,1,.16-.57A.86.86,0,0,1,7.65,38.65Z"/><path class="cls-7" d="M7.33,39.07a1,1,0,0,1-.1.55,4.59,4.59,0,0,1-.8.36c.06-.48.12-1,.23-1.5.11,0,.17.09.35.27A1,1,0,0,0,7.33,39.07Z"/><path class="cls-9" d="M6.43,40.06a2.42,2.42,0,0,1,.78-.34.69.69,0,0,1-.09.52,2.1,2.1,0,0,1-.58.07C6.43,40.26,6.43,40.2,6.43,40.06Z"/><path class="cls-7" d="M6.38,40.34c0,.06,0,.13-.16.23C6.18,40.51,6.24,40.43,6.38,40.34Z"/><path class="cls-35" d="M7.34,39c-.1,0-.18,0-.27-.19s.11-.1.19-.09S7.34,38.83,7.34,39Z"/><path class="cls-13" d="M11.79,41.59c.07.09.14.18.27.32a1.08,1.08,0,0,1,0,.51,5.19,5.19,0,0,1-1.6-.39,6.61,6.61,0,0,1,.93-.69.19.19,0,0,1,.28,0A.72.72,0,0,1,11.79,41.59Z"/><path class="cls-31" d="M31.81,29.71a14.5,14.5,0,0,0,1.81.3l.33-.07a4,4,0,0,1,.63-.23,4.53,4.53,0,0,1,.55.07,3.44,3.44,0,0,1-.58,1.38l-2.15.05a1.16,1.16,0,0,1-.55-.38,8.6,8.6,0,0,1-.07-1.12Z"/><path class="cls-39" d="M35.24,29.71a1.13,1.13,0,0,1-.58,0c-.09,0-.09-.16-.11-.29a.48.48,0,0,0-.43,0,4.34,4.34,0,0,1-.14-.64c0-.14,0-.26.11-.29.21-.25.33-.47.53-.73a9.73,9.73,0,0,1,1.11,0A17.28,17.28,0,0,1,35.24,29.71Z"/><path class="cls-31" d="M35.75,27.64a8.42,8.42,0,0,1-1.19.06,1.57,1.57,0,0,1-.23.07,1.09,1.09,0,0,0,0-.15c0-.13.11-.22.18-.37a5.13,5.13,0,0,1,1.14-.06C35.78,27.32,35.77,27.44,35.75,27.64Z"/><path class="cls-30" d="M33.67,33.78h.21a10.23,10.23,0,0,1,1.92,1.82,6.58,6.58,0,0,1-1.59,1,13.5,13.5,0,0,1-1.85-.19c0-.1,0-.17.14-.22a5.86,5.86,0,0,0,.25-.92c.23-.46.4-.83.58-1.2,0,0,0,0,.06,0A.88.88,0,0,0,33.67,33.78Z"/><path class="cls-13" d="M34.33,36.62c.41-.28.93-.55,1.5-.93,0-.1.15-.1.21-.1a2.13,2.13,0,0,0,.7.08,6.27,6.27,0,0,1,1.57.91A6.82,6.82,0,0,1,34.33,36.62Z"/><path class="cls-8" d="M31.62,39.07a.72.72,0,0,1-.23-.63,13.65,13.65,0,0,1,2.55.22A12.91,12.91,0,0,1,31.62,39.07Z"/><path class="cls-4" d="M33.23,34.11a4.32,4.32,0,0,1-.54,1.18c-.2.16-.25.22-.29.3a3.57,3.57,0,0,1-.63-.45A9.2,9.2,0,0,1,33.23,34.11Z"/><path class="cls-12" d="M31.7,29.74a3.74,3.74,0,0,1,.09,1A3.38,3.38,0,0,1,31.7,29.74Z"/><path class="cls-4" d="M33.59,33.77c0,.09-.05.16-.19.25s-.07-.12-.06-.19S33.46,33.76,33.59,33.77Z"/><path class="cls-31" d="M32.42,35.69a.32.32,0,0,1,.21-.31,1.79,1.79,0,0,1-.09.78A1.07,1.07,0,0,1,32.42,35.69Z"/><path class="cls-22" d="M34,28.46l0,.18a4.44,4.44,0,0,1-1.23-.4.22.22,0,0,1,.15-.06l.65,0a.38.38,0,0,1,.29.11Z"/><path class="cls-35" d="M33.92,29.91s-.08.05-.21.05S33.77,29.83,33.92,29.91Z"/><path class="cls-35" d="M34.23,29.37c0-.05.15-.08.32-.05C34.5,29.39,34.43,29.39,34.23,29.37Z"/><path class="cls-12" d="M34.09,28.43c-.13,0-.16-.05-.22-.17a1.1,1.1,0,0,1,.36-.44.92.92,0,0,1,.26-.08A2,2,0,0,1,34.09,28.43Z"/><path class="cls-11" d="M12.63,41.19a.92.92,0,0,1-.45.07A.83.83,0,0,1,12.63,41.19Z"/><path class="cls-11" d="M11.85,41.55c-.07,0-.08-.07-.09-.21s.1-.09.24-.08S12,41.44,11.85,41.55Z"/></g></g></svg>